<svg xmlns="http://www.w3.org/2000/svg" viewBox="0 0 500 500" xmlns:v="https://vecta.io/nano"><style><![CDATA[.B{fill:#27debf}.C{fill:#fff}.D{fill:#455a64}.E{fill:#263238}.F{fill:#ffa8a7}.G{fill:#37474f}.H{fill:#f28f8f}]]></style><ellipse cx="250" cy="341.911" rx="235.59" ry="136.018" fill="#f0f0f0"/><ellipse cx="201.247" cy="398.084" rx="81.241" ry="46.904" fill="#e0e0e0"/><use href="#B" class="B"/><use href="#B" opacity=".15"/><path d="M427.266 337.088a.58.58 0 0 0 .577-.596c-1.673-49.333 22.885-74.149 23.133-74.393.227-.224.23-.589.006-.815s-.591-.23-.816-.006c-.252.249-25.166 25.421-23.477 75.255.011.31.267.555.577.555z" class="C"/><path d="M438.265 342.833l-6.779-3.914s-1.153-14 5.711-31.007c5.975-14.806 20.802-27.089 28.259-24.508s7.272 7.869 3.636 13.416-25.754 18.768-30.827 46.013z" class="B"/><path d="M434.69 341.345h.003c.318-.002.576-.26.574-.579-.134-31.192 29.154-52.274 29.45-52.483.26-.184.322-.543.137-.804s-.541-.324-.804-.137c-.3.212-30.074 21.644-29.937 53.43.002.317.259.573.577.573z" class="C"/><use href="#C" class="B"/><g opacity=".15"><use href="#C"/></g><path d="M82.681 315.746a.64.64 0 0 1-.088-.005c-.349-.042-.6-.358-.558-.708 3.177-26.798-8.136-55.872-20.44-67.44-.256-.24-.269-.645-.027-.901a.64.64 0 0 1 .901-.027c12.528 11.779 24.057 41.325 20.832 68.518a.64.64 0 0 1-.62.563z" class="C"/><path d="M56.62 342.688c-1.396.838-5.477-2.189-6.606-2.916-1.933-1.243-3.514-3.027-4.581-5.058-1.241-2.364-1.592-4.915-1.269-7.563.168-1.373.525-2.715.881-4.051l1.05-3.937c.345-1.295.694-2.634.498-3.959-.394-2.671-2.807-4.5-4.999-6.077-2.424-1.743-4.957-4.056-5.006-7.28-.038-2.487 1.206-4.822 2.709-6.803l4.652-5.829c.974-1.503 1.723-3.26 1.525-5.04-.123-1.106-.602-2.141-1.151-3.108-1.179-2.077-2.717-3.97-3.546-6.21s-.771-5.046.958-6.693c1.419-1.352 3.562-1.578 5.519-1.487 1.811.085 3.594.867 5.193 1.716 5.172 2.746 8.21 8.75 13.682 10.835 2.111.804 4.409.945 6.603 1.48s4.442 1.607 5.492 3.607c2.07 3.943-1.534 8.921-.051 13.12 1.312 3.716 4.974 5.077 7.08 8.408.921 1.457 1.16 3.157 1.049 4.878-.188 2.912-.572 5.053-1.904 8.313-1.101 2.694-4.371 7.869-4.371 7.869L56.62 342.688z" class="B"/><g class="C"><path d="M70.138 334.396c-.378-.008-.656-.3-.649-.651.564-25.317-11.894-53.015-20.719-60.961-.261-.235-.283-.638-.047-.9a.64.64 0 0 1 .9-.047c9.002 8.106 21.712 36.263 21.141 61.936a.64.64 0 0 1-.626.623z"/><path d="M65.474 303.554a.61.61 0 0 1-.188-.025c-8.176-2.355-18.314-2.603-18.415-2.605a.64.64 0 0 1-.624-.652c.008-.351.269-.634.652-.624.103.003 10.402.253 18.74 2.656.338.097.534.45.436.788a.64.64 0 0 1-.601.462z"/></g><g class="D"><path d="M301.159 309.745l-3.794-2.193c-1.195-.691-2.164-2.37-2.164-3.751l-.001-157.517c0-1.381.969-3.06 2.165-3.75l105.345-60.82c1.196-.69 3.134-.69 4.33 0l3.795 2.19c1.196.69 2.165 2.369 2.165 3.75V245.17c0 1.381-.969 3.06-2.165 3.75l-105.347 60.825c-1.195.691-3.134.69-4.329 0z"/><path d="M412.982 87.302c-.15-1.12-1.06-1.53-2.15-.9l-105.34 60.83c-.6.35-1.13.93-1.53 1.61l-8.13-4.69c.39-.68.93-1.27 1.53-1.62l105.35-60.82c1.19-.69 3.13-.69 4.33 0l3.79 2.19c1.1.63 2.01 2.1 2.15 3.4z"/></g><path d="M305.122 309.919c-1.2.51-2.88.45-3.96-.17l-3.8-2.2c-1.19-.69-2.16-2.37-2.16-3.75V146.282c0-.69.24-1.45.63-2.13l8.13 4.69c-.4.68-.64 1.45-.64 2.14v157.517c0 1.24.78 1.81 1.8 1.42z" class="E"/><path d="M303.323 150.98v157.516c0 1.381.969 1.94 2.165 1.25l105.347-60.825c1.196-.69 2.165-2.369 2.165-3.75V87.653c0-1.381-.969-1.94-2.165-1.25L305.488 147.23c-1.195.69-2.165 2.369-2.165 3.75z" class="G"/><path d="M278.722 211.022l-8-4.59c-1-.61-1.36-2.09-.43-3.09l24.91-26.72 8.12 4.66-24.9 26.73c-.9.96-.61 2.35.3 3.01z" class="D"/><path d="M303.324 181.286l-24.905 26.723c-1.248 1.339-.194 3.512 1.63 3.362l23.275-1.917v-28.168z" class="G"/><path d="M358.161 133.202c12.278-7.089 22.231-1.342 22.231 12.835s-9.953 31.416-22.231 38.505-22.231 1.342-22.231-12.835 9.954-31.417 22.231-38.505z" class="B"/><path d="M358.005 144.359c3.983-2.3 7.213-.436 7.213 4.163s-3.229 10.193-7.213 12.492-7.212.436-7.212-4.164 3.229-10.192 7.212-12.491zm14.214 24.525c0-7.557-5.306-10.62-11.849-6.841l-4.091 2.362c-6.543 3.778-11.849 12.967-11.849 20.523v2.061c1.182.392 2.464.586 3.82.589 2.985.006 6.345-.977 9.912-3.036 5.334-3.08 10.227-8.078 14.057-13.905v-1.753z" class="C"/><path d="M344.079 254.73l28.166-16.262c1.196-.69 2.165-.131 2.165 1.25v9.071c0 1.381-.969 3.06-2.165 3.75l-28.166 16.262c-1.196.69-2.165.131-2.165-1.25v-9.071c0-1.381.969-3.06 2.165-3.75z" class="B"/><path d="M330.294 234.466l55.735-32.178c1.435-.828 2.598-.157 2.598 1.5v3.376c0 1.657-1.163 3.672-2.598 4.5l-55.734 32.178c-1.435.828-2.598.157-2.598-1.5v-3.376c-.001-1.657 1.163-3.672 2.597-4.5zm6.518-23.288c.758-.438 1.348-.504 1.768-.195s.63.992.63 2.054-.21 1.994-.63 2.796-1.01 1.423-1.768 1.861l-1.505.868v3.229c0 .107-.025.212-.075.318s-.11.18-.18.219l-.761.44c-.069.041-.129.037-.18-.012s-.075-.125-.075-.232v-9.354c0-.106.025-.213.075-.319s.11-.18.18-.219l2.521-1.454zm-1.505 5.574l1.457-.842c.357-.206.643-.479.856-.82s.319-.779.319-1.32-.106-.854-.319-.938-.499-.023-.856.184l-1.457.841v2.895zm8.097-9.381c.1-.058.176-.061.226-.008s.095.151.132.294l2.305 7.821c.006.025.009.057.009.096a.74.74 0 0 1-.075.318c-.05.106-.109.18-.179.219l-.677.391c-.125.072-.214.082-.264.029s-.084-.112-.104-.18l-.404-1.373-2.972 1.717-.404 1.84c-.019.088-.054.188-.103.299s-.138.202-.264.275l-.677.391c-.069.039-.129.035-.179-.014s-.075-.125-.075-.23a.51.51 0 0 1 .01-.107l2.304-10.481c.038-.187.081-.334.132-.445a.54.54 0 0 1 .226-.253l1.033-.599zm.517 6.059l-1.034-3.529-1.034 4.723 2.068-1.194zm5.653-9.766c.42-.242.79-.369 1.109-.379s.586.052.8.189.374.332.484.582a2.19 2.19 0 0 1 .184.784c.006.112-.018.22-.07.323s-.115.174-.184.214l-.659.38c-.106.063-.185.076-.239.045a.42.42 0 0 1-.146-.168c-.094-.188-.235-.315-.427-.384s-.476.006-.852.224c-.163.094-.318.211-.465.348a2.53 2.53 0 0 0-.386.455 2.28 2.28 0 0 0-.259.518 1.66 1.66 0 0 0-.094.547c0 .223.029.387.089.492s.159.168.301.188.328.006.56-.041l.865-.195c.376-.092.7-.131.974-.119s.494.085.667.222.301.336.386.596.127.588.127.983c0 .435-.063.874-.188 1.318s-.305.865-.536 1.265a5.82 5.82 0 0 1-.857 1.124 5.18 5.18 0 0 1-1.138.889c-.352.203-.687.332-1.006.385s-.604.031-.851-.072-.447-.285-.599-.546-.234-.598-.253-1.012c-.007-.112.018-.22.07-.323s.114-.174.183-.214l.659-.38c.106-.063.188-.08.244-.055s.103.085.142.178c.044.102.097.196.16.285s.146.151.253.186.24.037.4.009.358-.113.597-.252a3.8 3.8 0 0 0 .546-.38c.175-.144.329-.306.461-.483a2.63 2.63 0 0 0 .319-.561c.081-.197.122-.406.122-.629 0-.211-.044-.359-.131-.444s-.222-.123-.4-.116-.399.042-.663.107l-.912.193c-.314.065-.588.086-.823.063s-.43-.107-.583-.25-.268-.35-.343-.62-.112-.622-.112-1.058.063-.871.188-1.309a5.59 5.59 0 0 1 .518-1.24c.219-.388.48-.744.785-1.068a4.37 4.37 0 0 1 .983-.794zm6.564-3.789c.421-.242.79-.369 1.109-.38s.587.052.801.189a1.3 1.3 0 0 1 .483.582 2.2 2.2 0 0 1 .184.784.62.62 0 0 1-.07.323c-.054.103-.115.175-.184.214l-.659.381c-.107.062-.186.076-.239.045s-.102-.089-.145-.169c-.095-.186-.236-.315-.428-.384s-.475.006-.852.224c-.163.095-.317.211-.465.349a2.56 2.56 0 0 0-.386.454 2.29 2.29 0 0 0-.259.519 1.65 1.65 0 0 0-.094.547c0 .223.029.386.089.491a.38.38 0 0 0 .301.189c.142.02.328.006.56-.041l.865-.195c.377-.092.7-.131.974-.12s.495.085.667.222.302.336.386.596.127.588.127.984c0 .434-.063.873-.188 1.318a5.46 5.46 0 0 1-.536 1.264 5.78 5.78 0 0 1-.856 1.125c-.338.35-.718.646-1.137.888-.353.203-.688.332-1.007.386s-.603.03-.851-.073-.447-.284-.598-.546-.235-.598-.254-1.012c-.006-.112.018-.22.071-.322s.113-.175.183-.215l.658-.38c.106-.062.188-.08.244-.054s.104.084.142.178c.044.101.098.195.16.285a.5.5 0 0 0 .254.186c.106.035.24.037.399.009s.358-.113.598-.251a3.8 3.8 0 0 0 .545-.381c.175-.143.329-.305.461-.482a2.66 2.66 0 0 0 .32-.561c.081-.196.121-.405.121-.628 0-.212-.044-.36-.131-.445s-.222-.123-.4-.116-.399.042-.663.107l-.912.194a2.81 2.81 0 0 1-.823.063.97.97 0 0 1-.582-.25c-.154-.143-.269-.35-.344-.621s-.112-.622-.112-1.057.063-.871.188-1.31a5.61 5.61 0 0 1 .518-1.24c.219-.388.48-.743.785-1.068a4.22 4.22 0 0 1 .982-.795zm7.289 1.251l-.809 4.796c-.031.162-.071.304-.118.422a.5.5 0 0 1-.211.26l-.763.44c-.094.054-.168.052-.221-.011s-.089-.158-.107-.291l-1.205-8.441c-.006-.045-.009-.082-.009-.11 0-.106.025-.213.075-.319s.109-.18.179-.219l.695-.402c.063-.035.123-.041.18-.016s.094.104.112.239l.79 5.683.696-4.268c.013-.075.042-.18.09-.313s.126-.232.239-.298l.771-.445c.113-.065.193-.058.24.021s.076.148.089.208l.696 3.465.79-6.595c.018-.156.057-.278.113-.37a.53.53 0 0 1 .179-.189l.695-.402c.069-.039.129-.035.179.014s.075.125.075.231a1.11 1.11 0 0 1-.009.12l-1.204 9.832a1.57 1.57 0 0 1-.107.417.55.55 0 0 1-.222.266l-.762.439c-.095.055-.165.05-.212-.015a.85.85 0 0 1-.118-.287l-.806-3.862zm4.683-4.239c.02-.551.086-1.1.202-1.645a7.1 7.1 0 0 1 .513-1.541 6.04 6.04 0 0 1 .846-1.328 4.51 4.51 0 0 1 1.205-1.007c.457-.265.855-.393 1.193-.386s.621.125.847.352.397.543.517.946.189.876.208 1.415l.014.6.005.685-.005.69-.014.616a9.63 9.63 0 0 1-.202 1.645 7.1 7.1 0 0 1-.513 1.541 5.88 5.88 0 0 1-.851 1.324c-.343.4-.742.732-1.199.996-.465.268-.865.398-1.205.392s-.62-.122-.846-.345-.397-.537-.513-.949a6.01 6.01 0 0 1-.202-1.41l-.014-.601-.005-.684.005-.691.014-.615zm4.261-2.388c-.025-.681-.171-1.134-.438-1.362s-.619-.215-1.058.039-.792.648-1.059 1.184-.413 1.156-.438 1.866l-.02 1.235.02 1.212c.024.681.171 1.132.438 1.354s.619.207 1.059-.046.791-.645 1.058-1.175.412-1.15.438-1.86l.019-1.234-.019-1.213zm5.661-7.12c.783-.452 1.378-.516 1.786-.191s.611.984.611 1.979c0 .705-.104 1.365-.314 1.984a4.96 4.96 0 0 1-.927 1.643l1.298 2.827a.38.38 0 0 1 .028.144.61.61 0 0 1-.062.26c-.04.086-.09.145-.146.178l-.8.461c-.125.072-.218.08-.277.023s-.102-.117-.127-.18l-1.231-2.664-1.251.723v3.374c0 .106-.025.212-.075.317s-.109.18-.179.221l-.762.439c-.069.039-.128.035-.179-.014s-.075-.124-.075-.23v-9.354a.72.72 0 0 1 .075-.318c.051-.107.109-.18.179-.221l2.428-1.401zm-1.411 5.376l1.363-.787a2.54 2.54 0 0 0 .856-.784c.213-.315.319-.744.319-1.285s-.107-.841-.319-.901-.498.013-.856.22l-1.363.787v2.75zm8.079-9.226c.464-.268.866-.406 1.208-.416a1.15 1.15 0 0 1 .857.311c.23.216.403.533.526.955s.195.93.221 1.523v2.143c-.025.623-.099 1.216-.221 1.778s-.296 1.083-.522 1.562-.507.907-.843 1.289-.728.703-1.18.964l-2.37 1.368c-.069.04-.128.036-.179-.013s-.075-.124-.075-.231v-9.354a.74.74 0 0 1 .075-.318c.051-.106.109-.18.179-.22l2.324-1.341zm1.542 3.106a3.44 3.44 0 0 0-.117-.793c-.066-.227-.163-.403-.292-.526s-.29-.184-.483-.184-.428.08-.696.236l-1.26.727v6.516l1.307-.754c.257-.148.479-.332.668-.553a3.22 3.22 0 0 0 .47-.728c.125-.266.221-.552.287-.86a5.57 5.57 0 0 0 .117-.936l-.001-2.145z" fill="#fafafa"/><g class="B"><path d="M247.377 38.395c1.748.387 3.395 1.006 4.942 1.855s2.858 1.891 3.931 3.123a11.24 11.24 0 0 1 2.317 4.199c.472 1.566.506 3.262.103 5.083-.329 1.487-.848 2.729-1.555 3.722s-1.522 1.848-2.44 2.56a19.75 19.75 0 0 1-2.901 1.873l-2.883 1.525c-.907.482-1.728 1.014-2.459 1.592s-1.245 1.266-1.538 2.059a2.22 2.22 0 0 1-.736.947c-.327.241-.694.314-1.103.225l-4.239-.939c-.409-.09-.739-.318-.988-.687s-.311-.75-.184-1.151c.396-1.434.983-2.64 1.766-3.617s1.65-1.818 2.606-2.524 1.949-1.313 2.979-1.826l2.877-1.499c.887-.485 1.645-1.001 2.271-1.544a3.6 3.6 0 0 0 1.201-1.987c.313-1.412-.024-2.706-1.013-3.881s-2.468-1.979-4.438-2.416c-3.16-.7-5.834.366-8.021 3.197-.276.368-.54.631-.788.79s-.618.186-1.102.078l-4.517-1a1.26 1.26 0 0 1-.79-.526c-.192-.276-.247-.601-.165-.973.324-1.293 1.02-2.533 2.082-3.722s2.357-2.188 3.882-3.002 3.232-1.381 5.117-1.704 3.815-.267 5.786.17zm-4.783 32.172c.408.09.729.317.959.681s.303.749.212 1.158l-1.087 4.907c-.091.41-.317.73-.681.961a1.47 1.47 0 0 1-1.157.212l-4.796-1.062c-.41-.092-.73-.317-.962-.682s-.303-.748-.212-1.158l1.087-4.908c.091-.408.317-.729.681-.961s.749-.302 1.159-.211l4.797 1.063z"/><use href="#D"/></g><g opacity=".2"><use href="#D"/></g><use href="#E" class="B"/><g opacity=".6" class="C"><use href="#E"/></g><path d="M206.526 179.212h-35.527V93.127c0-15.567 12.62-28.188 28.188-28.188h3.283c15.568 0 28.188 12.62 28.188 28.188v61.955c-.001 13.327-10.805 24.13-24.132 24.13zM167.545 386.44c-.292 2.162-.913 4.686-1.029 10.804-.124 6.558-1.329 8.886-1.489 14.269-.182 6.15.88 8.452 3.376 11.908s9.046 6.594 11.814.75c2.802-5.913 2.412-9.67 1.527-15.704-.915-6.237-1.031-9.682-1.562-14.439-.467-4.193-1.027-7.378-1.027-7.378l-11.61-.21z" class="E"/><path d="M186.162 342.87l-21.604-.392c.321 14.422 2.613 30.43 2.987 43.961.07 2.547-.064 19.793.897 25.034 1.443 7.874 10.79 6.811 11.286 2.098s-.602-24.845-.572-26.922c-.082-8.678 3.985-23.327 6.118-38.905.104-.765.789-4.128.888-4.874z" class="F"/><path d="M213.914 375.217s-.853-.458-1.029.452l-.971 5.093c-.625 2.471-1.145 6.541-.77 8.554s5.069 4.605 8.116 5.541c4.496 1.38 7.581 3.635 10.044 5.953 3.018 2.841 9.531 5.524 13.966 5.492 5.248-.038 8.907-1.748 10.636-4.558 1.806-2.935-1.576-3.151-7.574-7.042l-4.656-3.022c-9.502-6.207-12.981-9.533-15.669-15.741l-12.093-.722z" class="E"/><path d="M226.082 371.375c-.16-4.466 2.903-42.346 2.903-42.346l-20.517 9.353c4.394 26.223 5.33 32.407 5.408 36.698h0c-.034.1-.121.464-.116 1.099.019 5.095 5.768 7.842 10.253 11.239 1.772 1.341 6.924 5.303 12.13 7.919 3.259 1.638 9.876 1.787 10.696-.31-5.458-4.168-13.396-10.405-17.737-15.165-2.073-2.274-2.86-4.022-3.02-8.487z" class="F"/><path d="M173.411 202.157c-7.876 17.298-7.876 30.674-6.574 52.744 1.194 20.245 3.098 38.067 3.098 38.067-.305 3.593-5.298 10.603-5.944 26.478-.604 14.842 1.022 33.709 1.022 33.709s11.208 6.212 19.496-.054c0 0 7.997-38.189 10.341-56.767 2.045-16.213 5.599-36.929 5.599-36.929l7.528 36.841s-2.864 9.083-3.534 16.002c-1.059 10.928 5.053 32.386 5.053 32.386s11.581 3.456 18.654-2.816l3.632-48.053c1.322-17.628-1.458-65.351-3.633-90.615l-54.738-.993z" class="D"/><path d="M200.449 259.405l3.112-27.732s13.941-1.863 20.256-7.8c0 0-4.745 8.694-16.426 10.381l-4.499 25.805 5.086 36.187-7.529-36.841z" class="E"/><path d="M256.896 195.343c.868-8.5.835-14.163.76-15.252-.304-4.401-1.091-5.117-7.244-12.915l-22.894-29.404c-5.353-6.721-10.98-7.755-16.476-7.451-3.843.213 3.654 18.682 7.431 29.611l21.551 23.18c.663.915.968 2.042.857 3.166l-1.323 19.734 6.454 8.633c-.001 0 9.773-8.426 10.884-19.302z" class="F"/><use href="#F" class="B"/><use href="#F" opacity=".6" class="C"/><path d="M215.751 171.72s-7.626 5.918-16.329 2.832-9.973-10.694-9.973-10.694-.924 9.949 10.054 13.342c10.595 3.273 16.248-5.48 16.248-5.48z" opacity=".1"/><path d="M226.091 103.61c-.328 14.437-5.014 18.006-7.362 19.031s-6.881.4-11.279-.328v8.664s5.076 5.322 4.696 9.29c-.389 3.978-7.977 4.419-13.678.533-4.161-2.834-7.133-6.074-8.43-7.611a3.08 3.08 0 0 1-.727-1.993v-20.388s-2.41 2.553-6.675-.369c-4.255-2.912-4.624-8.347-2.02-11.423 1.856-2.184 6.573-2.338 8.839 1.056 1.271 2.492 1.446 4.994 2.871 3.958 3.804-2.738 1.764-8.962 6.357-12.038.01 0 .01-.01.02-.01a32.19 32.19 0 0 1 4.676-2.041c8.193-2.83 15.289-5.209 17.001-10.808 3.229 1.918 6.111 7.445 5.711 24.477z" class="F"/><circle cx="209.943" cy="114.614" r="1.895" fill="#b16668"/><path d="M208.675 101.421c.058 1.145-.789 2.114-1.89 2.167s-2.041-.833-2.099-1.978.789-2.114 1.891-2.167 2.041.834 2.098 1.978zm15.155.197c.053 1.04-.717 1.922-1.719 1.969-1.101.052-1.85-.653-1.908-1.797-.052-1.04.717-1.922 1.719-1.97s1.856.758 1.908 1.798z" class="E"/><g class="D"><use href="#G"/><use href="#G" x="16.511"/></g><path d="M213.621 97.962l.32 12.146 6.393-1.981zm-6.176 24.348c-4.643-.609-14.195-3.353-15.683-7.129 0 0 .496 2.373 3.349 4.819s12.334 5.201 12.334 5.201v-2.891z" class="H"/><path d="M207.665 92.064l-4.236 2.582c-.694-1.219-.308-2.785.862-3.498s2.681-.303 3.374.916zm17.256 2.879l-4.719-1.648c.41-1.331 1.798-2.04 3.101-1.585s2.027 1.902 1.618 3.233z" class="E"/><path d="M212.097 100.576c-.283 0-.512-.234-.512-.518 0-.832 1.646-1.37 3.123-1.37s2.431.538 2.431 1.37c0 .283-.229.513-.513.513a.51.51 0 0 1-.513-.513c-.046-.094-.519-.344-1.406-.344s-2.051.25-2.099.353c.001.284-.228.509-.511.509zm-11.964-.433a.58.58 0 0 1-.058-.003l-11.431-1.041c-.205-.19-.746-.749-1.873-1.216l13.418 1.238c.281.031.484.285.453.567-.03.261-.252.455-.509.455z" class="D"/><path d="M153.203 112.056c3.738-4.994 6.287-8.768 9.699-13.049 1.937-2.431 3.176-4.166 5.04-6.66 1.283-1.717 2.035-3.165 3.457-3.697 1.6-.599 3.143-1.783 4.172-2.864.735-.773 1.337-1.66 1.973-2.517a37.56 37.56 0 0 1 7.551-7.606c3.009-2.267 6.352-3.996 9.439-6.156 1.842-1.289 3.817-3.43 1.575-5.428-.669-.597-1.519-.953-2.395-1.144-5.441-1.189-10.189.687-15.511 2.048-2.313.591-4.589 1.332-6.777 2.289-1.062.464-2.121.969-3.001 1.722-1.372 1.174-2.193 2.845-3.084 4.414-2.393 4.216-7.35 7.936-10.839 11.218l-12.42 11.628c-4.202 3.823-8.313 7.348-12.167 11.523-3.188 3.454-2.028 6.156-1.574 7.089 2.598 5.344 5.507 7.26 8.982 10.57 6.019 5.734 26.751 22.228 33.629 27.672a11.32 11.32 0 0 1 3.371 4.4l1.313 3.05c7.84 1.443 13.071-10.328 6.578-24.501-1.053-2.299-2.724-4.256-4.767-5.746-8.183-5.97-24.244-18.255-24.244-18.255z" class="F"/><path d="M153.203 112.056s-3.545 4.739-9.582 6.595c0 0 5.001 1.276 11.846-4.867l-2.264-1.728z" class="H"/><path d="M254.861 184.908l.026.003-1.282-1.105-.001.016c-.289-.232-.738-.305-1.318-.147l-13.885 3.777c-1.287.35-2.684 1.655-3.12 2.915l-9.992 28.829c-.231.668-.139 1.183.184 1.473l-.011.004 1.322 1.139-.001-.017c.288.24.742.317 1.331.157l13.885-3.776c1.287-.35 2.684-1.656 3.12-2.916l9.993-28.83c.246-.711.124-1.245-.251-1.522z" class="D"/><path d="M226.574 220.303l9.992-28.829c.436-1.26 1.833-2.565 3.12-2.915l13.885-3.776c1.287-.35 1.976.388 1.54 1.648l-9.992 28.83c-.436 1.26-1.834 2.566-3.12 2.916l-13.885 3.776c-1.287.348-1.976-.39-1.54-1.65z" class="B"/><path d="M238.176 189.359c-.723.571-1.345 1.357-1.611 2.118l-9.995 28.82c-.216.647-.152 1.154.139 1.446l-1.243-1.066.013-.013c-.33-.292-.419-.799-.19-1.471l9.995-28.833c.241-.71.812-1.433 1.484-2.004l1.408 1.003z" class="G"/><path d="M251.046 198.045c-.979 2.937-4.468 4.896-10.203 6.255s-8.912 7.449-7.986 9.302 10.194 3.574 13.901 3.045 7.436-5.888 8.558-7.546 2.43-13.239 1.239-14.827-3.695-1.345-3.695-1.345l-1.814 5.116z" class="H"/><defs ><path id="B" d="M432.276 339.403l-9.526-5.5s-2.334-20.402-.781-36.202c2.181-22.202 16.52-48.917 33.626-42.643s-7.843 28.885-13.396 47.717-9.923 36.628-9.923 36.628z"/><path id="C" d="M79.66 327.146l8.796-5.936s3.872-23.046.275-43.289c-5.058-28.461-24.686-37.932-31.69-34.958s-8.501 11.463 4.567 27.712c7.71 9.586 17.782 29.973 18.052 56.471z"/><path id="D" d="M252.716 85.305c1.219-.199 2.434-.226 3.644-.076s2.315.479 3.319.994a7.8 7.8 0 0 1 2.56 2.1c.705.885 1.16 1.963 1.368 3.232.169 1.038.154 1.968-.045 2.785s-.502 1.574-.908 2.267-.866 1.34-1.381 1.943l-1.457 1.716c-.458.541-.848 1.092-1.169 1.65s-.475 1.129-.459 1.712a1.55 1.55 0 0 1-.229.797c-.148.237-.365.379-.649.426l-2.958.483a1.09 1.09 0 0 1-.811-.188c-.254-.171-.392-.401-.412-.691-.113-1.021-.045-1.943.207-2.771a9.57 9.57 0 0 1 1.024-2.285 13.95 13.95 0 0 1 1.442-1.934l1.461-1.698c.444-.537.798-1.062 1.061-1.57s.351-1.036.262-1.582c-.161-.984-.709-1.728-1.644-2.229s-2.089-.638-3.464-.413c-2.205.36-3.646 1.729-4.324 4.104-.083.306-.184.542-.304.708s-.348.277-.685.332l-3.151.516c-.234.038-.448-.007-.643-.135s-.312-.322-.355-.582c-.123-.911.005-1.885.383-2.919s.95-2.007 1.72-2.918 1.719-1.712 2.844-2.402 2.378-1.147 3.753-1.372zm5.168 21.849c.285-.046.549.018.791.19a1.03 1.03 0 0 1 .432.688l.56 3.426c.047.285-.017.549-.19.79s-.403.385-.689.432l-3.347.547c-.285.047-.549-.016-.79-.189s-.386-.403-.433-.688l-.56-3.426a1.03 1.03 0 0 1 .19-.79c.174-.241.403-.386.688-.433l3.348-.547z"/><path id="E" d="M280.991 90.689a1.22 1.22 0 0 1 .508.819c.058.348-.012.661-.21.94l-2.382 3.351a1.21 1.21 0 0 1-.819.507c-.348.06-.661-.011-.94-.209l-3.274-2.328a1.21 1.21 0 0 1-.507-.818c-.06-.349.011-.661.21-.94l2.382-3.352a1.21 1.21 0 0 1 .819-.507c.347-.059.659.011.939.21l3.274 2.327zm13.854-22.712a15.16 15.16 0 0 1 3.132 2.971c.895 1.134 1.552 2.335 1.966 3.604a9.21 9.21 0 0 1 .408 3.901c-.144 1.332-.657 2.619-1.542 3.863-.722 1.016-1.508 1.785-2.356 2.308a9.86 9.86 0 0 1-2.653 1.152 16.25 16.25 0 0 1-2.782.488l-2.659.23c-.836.074-1.623.213-2.358.416s-1.342.557-1.814 1.061c-.25.243-.535.402-.857.479a1.06 1.06 0 0 1-.901-.183l-2.895-2.058c-.279-.198-.455-.475-.526-.832a1.04 1.04 0 0 1 .228-.927c.756-.954 1.582-1.675 2.483-2.162a11.42 11.42 0 0 1 2.768-1.071 16.37 16.37 0 0 1 2.826-.427l2.645-.213c.823-.083 1.557-.229 2.204-.439s1.158-.581 1.537-1.114c.686-.965.843-2.046.473-3.246s-1.228-2.277-2.572-3.233c-2.159-1.534-4.514-1.583-7.063-.147-.326.189-.608.305-.846.345s-.523-.057-.853-.291l-3.085-2.193a1.03 1.03 0 0 1-.428-.647c-.057-.271.006-.531.185-.785.656-.871 1.574-1.585 2.754-2.142s2.473-.898 3.882-1.024 2.873-.012 4.396.346 2.956 1.013 4.303 1.97z"/><path id="F" d="M190.281 130.919h0l-11.748.954c-4.374 2.441-5.479 4.442-6.293 10.251-.346 2.471 1.668 9.065 3.398 18.433l3.283 17.374-.356 8.616c-1.704 5.257-5.559 11.792-8.954 21.424 16.696 9.318 30.699 9.663 43.398 8.033 9.684-1.243 14.808-3.587 16.516-5.901-.356-9.516-1.029-15.391-1.194-25.333-.069-4.176.182-8.389.344-13.195 6.497-5.337 6.571-14.212 3.027-19.949-8.233-13.329-16.238-21.721-21.54-21.291l-19.881.584z"/><path id="G" d="M206.107 106.562c-3.586 0-6.504-2.918-6.504-6.504 0-4.422 4.557-4.422 6.504-4.422s6.504 0 6.504 4.422c0 3.587-2.918 6.504-6.504 6.504zm0-9.9c-3.942 0-5.478.952-5.478 3.397 0 3.021 2.457 5.478 5.478 5.478s5.478-2.457 5.478-5.478c0-2.445-1.536-3.397-5.478-3.397z"/></defs></svg>