<svg xmlns="http://www.w3.org/2000/svg" viewBox="0 0 500 500" xmlns:v="https://vecta.io/nano"><style><![CDATA[.B{fill:#27debf}.C{fill:#fff}.D{fill:#263238}.E{opacity:.4}.F{opacity:.5}.G{opacity:.15}.H{fill:#455a64}.I{fill:#ffa8a7}.J{fill:#37474f}.K{fill:#f28f8f}]]></style><ellipse cx="249.048" cy="350.024" rx="235.608" ry="136.029" fill="#f0f0f0"/><path d="M384.363 397.224c-15.45-8.92-15.45-23.382 0-32.302s40.498-8.92 55.948 0 15.45 23.382 0 32.302-40.498 8.92-55.948 0zm-314.244 1.238l-40.64-23.464c-2.291-1.323-2.291-3.468 0-4.791l236.389-136.479c2.291-1.323 6.006-1.323 8.297 0l40.642 23.463c2.291 1.323 2.291 3.468 0 4.79L78.416 398.462c-2.291 1.323-6.006 1.323-8.297 0z" fill="#e0e0e0"/><use href="#B" class="B"/><g opacity=".6"><use href="#B"/></g><path d="M170.455 340.48v4.839l-11.184-6.445c-1.908-1.104-3.474-3.795-3.474-6.024v-43.07l11.626-6.707.743 8.976-8.152 4.719v33.653c0 2.229 1.546 4.919 3.474 6.024l6.967 4.035z" opacity=".3"/><use href="#C" class="B"/><use href="#C" opacity=".3"/><path d="M231.598 305.283v-.005l-7.084-4.09c-1.921-1.109-3.478-3.806-3.478-6.024v-33.657l-61.025 35.262v33.659c0 2.218 1.557 4.915 3.478 6.024l6.961 4.019 61.148-35.188z" class="F"/><use href="#D" class="B"/><use href="#D" class="F"/><g class="B"><path d="M62.031 372.263c2.252 1.3 6.025 1.23 8.426-.156l235.997-136.25c2.401-1.386 4.346-4.757 4.346-7.529V37.414c0-2.772-1.826-6.074-4.078-7.374s-6.024-1.231-8.425.156L62.303 166.446c-2.401 1.386-4.347 4.757-4.347 7.53l-.003 190.913c0 2.772 1.825 6.073 4.078 7.374z"/><use href="#E"/></g><use href="#E" class="F"/><use href="#F" class="B"/><use href="#F" class="F"/><path d="M66.103 356.849l.007 17.377c0 2.772 1.947 3.896 4.347 2.51l235.996-136.249c2.401-1.386 4.347-4.757 4.347-7.53v-17.414L66.103 356.849z" class="B"/><path d="M66.11 356.813v17.413c0 2.772 1.947 3.896 4.347 2.51l235.996-136.249c2.401-1.386 4.347-4.757 4.347-7.53v-17.414L66.11 356.813z" opacity=".3"/><use href="#G" class="B"/><use href="#G" class="D"/><path d="M188.452 291.726c-2.253 1.301-4.079 4.464-4.079 7.065s1.827 3.655 4.08 2.354 4.079-4.464 4.079-7.065-1.827-3.654-4.08-2.354z" class="B"/><path d="M67.388 174.378c-.783 1.365-1.265 2.911-1.285 4.297V356.85l-8.152-4.719.005-178.155c0-1.385.497-2.931 1.28-4.296l8.152 4.698z" opacity=".7"/><path d="M310.756 36.694c-.308-2.241-2.118-3.053-4.307-1.799L70.46 171.153c-1.193.689-2.272 1.861-3.074 3.228l-8.153-4.708c.792-1.347 1.871-2.539 3.074-3.228L298.296 30.197c2.406-1.388 6.168-1.46 8.43-.154 2.056 1.182 3.752 4.05 4.03 6.651z" opacity=".3"/><path d="M323.492 60.187c-.568-.341-1.343-.329-2.217.176L98.587 188.949c-1.683.972-3.047 3.332-3.047 5.275l.002 152.719c0 1.184.507 2.23 1.284 2.647l3.892 2.208c.498.268 1.107.277 1.765-.102l222.68-128.637c1.684-.969 3.049-3.329 3.049-5.272V64.328c0-1.002-.363-1.696-.944-2.001l-3.776-2.14z" class="B"/><path d="M101.477 351.491c-.851 0-1.542-1.05-1.542-2.34V196.432c0-1.75 1.28-3.968 2.796-4.844L325.416 63.002c.396-.229.779-.349 1.11-.349.743 0 1.186.626 1.186 1.675v153.46c0 1.75-1.281 3.966-2.798 4.838L102.233 351.263c-.262.151-.516.228-.756.228z" fill="#fafafa"/><path d="M326.527 63.153h0c.596 0 .685.736.685 1.175v153.46c0 1.593-1.167 3.61-2.549 4.406L101.985 350.83c-.186.107-.357.161-.508.161-.556 0-1.043-.86-1.043-1.84V196.432c0-1.594 1.166-3.613 2.546-4.41L325.666 63.435c.404-.233.691-.282.861-.282m0-1c-.409 0-.872.134-1.361.416L102.481 191.156c-1.682.971-3.046 3.334-3.046 5.276v152.719c0 1.536.853 2.84 2.043 2.84.315 0 .654-.091 1.006-.294l222.68-128.637c1.684-.969 3.049-3.329 3.049-5.272V64.328c0-1.378-.687-2.175-1.686-2.175h0z" fill="#e0e0e0"/><path d="M96.822 349.589l3.737 2.117c-.7-.499-1.069-1.356-1.121-2.558V206.397l-3.9-2.282v142.829c0 1.179.508 2.233 1.284 2.645z" fill="#f0f0f0"/><path d="M328.211 64.305c-.012-1.924-1.369-2.703-3.044-1.736L102.481 191.156c-1.682.971-3.046 3.334-3.046 5.276l.003 9.965L328.211 74.303v-9.998z" class="B"/><g class="E C"><path d="M325.165 62.568L102.484 191.154c-.834.489-1.6 1.313-2.146 2.261l-3.871-2.242c.546-.939 1.296-1.755 2.119-2.225L321.275 60.362c.872-.508 1.648-.516 2.214-.18l3.718 2.117c-.538-.258-1.256-.181-2.042.269z"/></g><path d="M95.538 204.125l.002-9.905c0-.987.362-2.079.927-3.047l3.88 2.232c-.565.958-.91 2.041-.91 3.027v9.963l-3.899-2.27z" class="G"/><path d="M281.25 179.423l-133.374 77.003c-1.229.71-2.226 2.436-2.226 3.855v38.236c0 1.419.997 3.144 2.228 3.852l3.897 2.242c1.23.708 3.224.706 4.453-.003l133.356-76.993c1.229-.71 2.226-2.436 2.227-3.855l.016-38.247c.001-1.419-.996-3.144-2.227-3.852l-3.896-2.242c-1.231-.707-3.225-.705-4.454.004z" class="B"/><path d="M291.809 185.153c-.154-1.151-1.09-1.573-2.21-.925L156.23 261.229c-.617.35-1.172.966-1.573 1.665l-8.348-4.822c.401-.689.956-1.295 1.563-1.645l133.379-77.001c1.224-.709 3.218-.72 4.452-.01l3.896 2.241c1.13.648 2.066 2.16 2.21 3.496z" class="C F"/><path d="M155.85 304.787c-1.234.524-2.961.463-4.071-.175l-3.896-2.241c-1.234-.709-2.231-2.436-2.231-3.855v-38.233c0-.72.257-1.511.658-2.21l8.348 4.822c-.411.699-.658 1.48-.658 2.19v38.243c-.001 1.274.801 1.86 1.85 1.459z" class="D"/><path d="M156.227 261.233l133.374-77.004c1.229-.71 2.225-.134 2.225 1.285l-.016 38.247c-.001 1.419-.998 3.145-2.227 3.855l-133.356 76.993c-1.229.71-2.226.134-2.226-1.285v-38.236c.001-1.42.997-3.146 2.226-3.855z" class="B"/><path d="M245.894 199.839l-98.023 56.589c-.606.35-1.161.956-1.563 1.645l8.348 4.822c.401-.699.956-1.316 1.573-1.665l97.997-56.579-8.332-4.812z" class="H"/><path d="M254.227 204.652l-98 56.58c-1.229.71-2.226 2.436-2.226 3.855v38.236c0 1.419.996 1.995 2.226 1.285l98-56.58v-43.376z" class="J"/><path d="M178.829 256.575l50.567-29.196c2.097-1.211 3.796-.351 3.796 1.921s-1.7 5.094-3.797 6.305l-50.563 29.193c-2.097 1.211-3.798.351-3.798-1.919s1.698-5.093 3.795-6.304z" class="B"/><path d="M189.191 266.237c.057-.033.107-.024.148.026s.063.125.063.227v5.695a9.05 9.05 0 0 1-.142 1.636 6.59 6.59 0 0 1-.422 1.438c-.187.442-.422.833-.702 1.177s-.607.62-.977.833-.703.315-.981.297a.97.97 0 0 1-.699-.367c-.188-.225-.327-.544-.419-.954s-.137-.902-.137-1.476v-5.694a.75.75 0 0 1 .063-.299c.041-.098.09-.165.148-.197l.634-.366c.057-.034.106-.025.149.025s.062.125.062.227v5.625c0 .38.029.687.086.922s.138.41.241.52a.47.47 0 0 0 .376.16c.146-.006.305-.059.477-.158a1.98 1.98 0 0 0 .48-.396 2.26 2.26 0 0 0 .38-.594c.104-.231.186-.498.246-.801s.089-.645.089-1.024v-5.624c0-.102.021-.201.062-.299s.091-.165.15-.198l.625-.361zm3.922 5.388c0-.1-.018-.174-.055-.218s-.1-.067-.191-.07a1.58 1.58 0 0 0-.363.043l-.578.112c-.23.04-.419.032-.57-.018a.71.71 0 0 1-.363-.277 1.3 1.3 0 0 1-.192-.522c-.036-.215-.054-.461-.054-.738a3.88 3.88 0 0 1 .109-.884c.073-.31.178-.609.316-.897a4.06 4.06 0 0 1 .504-.798c.198-.243.425-.439.68-.586s.483-.229.684-.241.371.021.512.106.249.215.327.388a1.6 1.6 0 0 1 .133.582.65.65 0 0 1-.059.298c-.044.099-.095.166-.153.198l-.601.347c-.077.045-.137.054-.176.026l-.128-.1c-.047-.036-.109-.058-.188-.064s-.195.036-.351.126a1.45 1.45 0 0 0-.414.363.86.86 0 0 0-.181.549c0 .101.015.178.044.232s.082.084.163.092.194.002.337-.02l.558-.106c.463-.092.79-.006.98.259s.286.677.286 1.231a3.59 3.59 0 0 1-.117.88c-.078.309-.192.61-.34.905a3.92 3.92 0 0 1-.547.816c-.217.25-.46.453-.73.608-.277.16-.519.242-.731.248s-.39-.041-.534-.143-.258-.244-.336-.431-.12-.388-.126-.607a.65.65 0 0 1 .059-.298c.044-.099.094-.166.152-.2l.602-.347c.078-.044.136-.046.176-.004l.132.146c.049.055.118.089.207.103s.221-.031.399-.134a1.9 1.9 0 0 0 .242-.168c.083-.066.161-.141.231-.223a1.36 1.36 0 0 0 .176-.268c.045-.095.069-.194.069-.296zm2.037-2.719a8.94 8.94 0 0 1 .133-1.541 7.67 7.67 0 0 1 .383-1.416c.167-.434.368-.816.605-1.148s.501-.58.793-.749.555-.227.793-.175.438.193.605.416.295.524.387.901.137.804.137 1.276v.624c0 .102-.021.203-.063.299s-.09.165-.149.198l-2.609 1.507c0 .213.026.385.075.518s.115.233.199.295a.42.42 0 0 0 .289.083.79.79 0 0 0 .336-.111 1.55 1.55 0 0 0 .406-.324 1.89 1.89 0 0 0 .258-.378l.141-.234c.036-.049.086-.09.149-.126l.625-.361c.056-.032.107-.025.152.022s.064.126.058.231c-.005.133-.045.322-.12.57s-.189.511-.34.793a4.93 4.93 0 0 1-.558.822c-.221.266-.478.484-.769.652s-.556.231-.793.189-.439-.185-.605-.422-.294-.559-.383-.967-.135-.888-.135-1.444zm1.915-3.189a1.32 1.32 0 0 0-.387.342c-.107.142-.197.294-.27.461a2.86 2.86 0 0 0-.168.514 3.29 3.29 0 0 0-.075.48l1.766-1.019c-.01-.132-.03-.266-.058-.404s-.075-.247-.141-.335a.39.39 0 0 0-.258-.156c-.106-.018-.243.022-.409.117zm5.062-2.783c-.312.181-.537.434-.676.758s-.207.766-.207 1.321v3.611c0 .101-.021.202-.062.299s-.091.165-.15.197l-.592.343c-.057.032-.107.024-.149-.026s-.063-.125-.063-.227v-6.472a.75.75 0 0 1 .063-.299c.041-.098.091-.164.149-.198l.592-.341c.058-.034.107-.025.15.025s.062.125.062.227v.32c.135-.301.28-.555.434-.765a1.93 1.93 0 0 1 .605-.53l.351-.203c.057-.032.106-.024.149.026s.062.126.062.227v.917a.77.77 0 0 1-.062.3c-.042.098-.091.165-.149.197l-.507.293zm7.46-.487c.057-.033.106-.024.149.026s.062.126.062.227v.987c0 .101-.021.202-.062.299s-.091.164-.149.197l-3.422 1.976c-.058.033-.106.024-.149-.026s-.062-.125-.062-.227v-8.972a.77.77 0 0 1 .062-.299c.042-.098.09-.164.149-.197l.633-.365c.057-.033.107-.024.149.026s.063.124.063.227v7.61l2.577-1.489zm3.069-7.397c.287-.166.546-.237.778-.213a.93.93 0 0 1 .601.305c.168.18.305.425.406.738s.162.676.177 1.092l.008.315v.387.384l-.008.316c-.021.438-.08.87-.18 1.298s-.233.827-.403 1.198-.37.702-.601.993a2.76 2.76 0 0 1-.778.685c-.287.166-.545.237-.777.213a.94.94 0 0 1-.6-.299c-.17-.175-.304-.42-.403-.732s-.16-.678-.181-1.091l-.011-.305-.004-.379.004-.392.011-.325a6.73 6.73 0 0 1 .176-1.297 6.66 6.66 0 0 1 .408-1.207c.169-.376.369-.708.6-.999a2.77 2.77 0 0 1 .777-.685zm.947 2.579c-.016-.278-.054-.494-.115-.65s-.133-.263-.223-.323a.38.38 0 0 0-.288-.062.98.98 0 0 0-.321.122c-.108.062-.215.146-.319.248s-.201.234-.289.396a2.63 2.63 0 0 0-.223.58c-.059.224-.097.485-.113.78l-.011.285-.005.349.005.351.011.265c.016.277.054.494.113.648s.135.263.223.323.185.081.289.062a1.01 1.01 0 0 0 .319-.122c.108-.062.217-.145.321-.247a1.64 1.64 0 0 0 .288-.396 2.63 2.63 0 0 0 .223-.58c.06-.225.098-.485.115-.781l.007-.275v-.355-.345l-.007-.273zm4.076 3.269c.111-.062.222-.158.337-.284a2.08 2.08 0 0 0 .311-.465 3 3 0 0 0 .231-.626c.06-.234.09-.485.09-.754v-.514c-.042.107-.096.229-.165.365a3.57 3.57 0 0 1-.246.414c-.096.139-.209.273-.335.402a1.98 1.98 0 0 1-.434.333c-.261.151-.497.197-.707.139s-.391-.197-.539-.412-.266-.494-.351-.838-.135-.726-.146-1.146l-.007-.482.007-.49c.011-.432.059-.869.146-1.313s.203-.857.351-1.244.327-.732.539-1.034.446-.527.707-.678c.161-.093.306-.151.434-.168s.239-.013.335.014.179.071.246.13a1.11 1.11 0 0 1 .165.176v-.32a.75.75 0 0 1 .062-.299c.041-.098.09-.164.149-.197l.593-.343c.057-.032.107-.024.149.026s.063.126.063.227v6.514c0 1.12-.177 2.066-.528 2.839s-.837 1.337-1.458 1.695c-.265.154-.511.233-.738.24s-.423-.048-.589-.16a1.18 1.18 0 0 1-.399-.479c-.1-.207-.154-.447-.164-.718-.006-.098.014-.198.059-.297s.094-.167.152-.2l.531-.306c.073-.042.135-.034.187.024a1.35 1.35 0 0 1 .133.167c.067.118.16.195.277.228s.303-.021.552-.166zm-.937-4.847c-.016.269-.016.528 0 .779.031.582.136.956.313 1.116s.393.169.647.022.47-.406.645-.775.275-.811.301-1.326l.016-.537-.016-.518c-.026-.467-.126-.788-.301-.966s-.39-.192-.645-.044-.472.405-.647.771-.281.86-.313 1.478zm5.234-8.881c.057-.034.107-.025.148.024s.063.127.063.228v1.083c0 .102-.021.202-.063.3s-.091.164-.148.198l-.671.387c-.057.032-.107.024-.149-.026s-.063-.126-.063-.228v-1.083a.76.76 0 0 1 .063-.3c.041-.097.091-.164.149-.196l.671-.387zm.173 9.385c0 .102-.021.203-.063.299s-.091.165-.149.198l-.592.342c-.057.033-.107.024-.149-.026s-.063-.125-.063-.227v-6.471c0-.102.021-.203.063-.299s.091-.165.149-.198l.592-.342c.057-.033.107-.024.149.026s.063.124.063.227v6.471zm5.28-3.048c0 .101-.021.202-.061.299s-.091.164-.149.197l-.594.343c-.057.032-.106.024-.149-.026s-.062-.125-.062-.227v-3.528c0-.555-.072-.958-.219-1.207s-.369-.287-.672-.112c-.276.159-.493.452-.652.876s-.238.916-.238 1.471v3.528c0 .101-.021.202-.062.299s-.091.165-.149.197l-.593.343c-.057.032-.108.024-.149-.026s-.063-.126-.063-.227v-6.472a.75.75 0 0 1 .063-.299c.041-.098.091-.164.149-.198l.593-.341c.057-.034.106-.025.149.025s.062.126.062.227v.32c.136-.319.294-.609.477-.872s.398-.466.649-.61c.317-.184.583-.25.796-.197a.82.82 0 0 1 .515.411c.131.221.223.514.278.875a8.14 8.14 0 0 1 .081 1.196v3.735z" fill="#fafafa"/><path d="M277.875 224.402l-9.714 5.608 1.505-13.624c-1.162-.614-1.902-2.126-1.902-4.296 0-3.869 2.352-8.363 5.254-10.039s5.253.103 5.253 3.972c0 2.17-.74 4.537-1.902 6.493l1.506 11.886z" class="H"/><path d="M277.875 224.402l-8.549-4.935-1.165 10.543zm-4.856-22.351c-1.899 1.096-3.557 3.401-4.48 5.946l7.832 4.522v-.002c1.162-1.956 1.902-4.322 1.902-6.493-.001-3.869-2.353-5.648-5.254-3.973z" class="J"/><g class="B"><path d="M225.796 156.704c-3.322-1.923-7.912-1.65-12.985 1.279-10.139 5.855-18.358 20.092-18.356 31.8.001 5.875 2.072 9.994 5.416 11.902l6.469 3.751c3.322 1.92 7.91 1.646 12.98-1.281 10.138-5.854 18.356-20.091 18.356-31.8 0-5.851-2.054-9.96-5.373-11.878"/><path d="M219.317 161.755c-10.138 5.857-18.358 20.092-18.356 31.799s8.221 16.454 18.359 10.6 18.367-20.091 18.356-31.8-8.23-16.452-18.359-10.599z"/><path d="M229.454 187.731v1.336c-2.614 4.462-6.192 8.347-10.136 10.618-3.951 2.278-7.521 2.527-10.136 1.073v-2.768c0-5.345 3.629-11.633 8.259-14.313l2.665-1.534c2.366-1.366 4.659-1.541 6.463-.497 1.841 1.061 2.885 3.274 2.885 6.085z"/></g><path d="M225.796 156.704l6.507 3.771c-3.324-1.924-7.914-1.652-12.984 1.278-6.639 3.837-12.455 11.267-15.679 19.226l-6.507-3.775c3.224-7.959 9.037-15.389 15.679-19.223 5.073-2.926 9.663-3.2 12.984-1.277z" class="C E"/><path d="M206.095 205.293l-6.226-3.61c-3.344-1.907-5.416-6.026-5.416-11.9l6.507 3.775c.004 5.706 1.96 9.759 5.135 11.735z" opacity=".2"/><path d="M197.133 177.205l6.507 3.775c-1.701 4.196-2.679 8.537-2.679 12.574v.003l-6.507-3.775c0-4.04.981-8.384 2.679-12.577z" opacity=".1"/><path d="M217.01 181.521c-.636 0-1.229-.153-1.766-.46-1.237-.715-1.918-2.13-1.918-3.983 0-3.393 2.302-7.382 5.243-9.079v-.003c1.599-.927 3.161-1.042 4.407-.328 1.237.715 1.918 2.13 1.918 3.983 0 3.393-2.302 7.382-5.24 9.079-.912.525-1.81.791-2.644.791zm9.559.127c-1.804-1.044-4.097-.869-6.463.497l-2.665 1.534c-4.63 2.68-8.259 8.967-8.259 14.313v2.768c2.614 1.453 6.185 1.205 10.136-1.073 3.943-2.271 7.521-6.156 10.136-10.618v-1.336c0-2.813-1.044-5.026-2.885-6.085z" class="C"/><use href="#H" class="B"/><use href="#H" opacity=".1"/><path d="M434.338 351.615c-.027-.005-.053-.012-.079-.023-.204-.082-.302-.314-.219-.518 7.86-19.357 22.823-27.44 29.637-29.009.213-.051.427.085.477.298s-.084.428-.298.477c-6.675 1.537-21.342 9.48-29.079 28.533-.072.178-.258.275-.439.242z" class="C"/><path d="M474.124 351.844c-.674 1.52-2.334 2.312-3.879 2.934-1.536.616-3.22 1.29-4.054 2.727-1.681 2.904 1.079 6.986-.726 9.814-.758 1.185-2.166 1.81-3.551 2.058-1.151.215-2.322.214-3.489.312-.561-.012-1.117-.052-1.659-.129-1.601-.232-3.338-.307-4.805.512-2.308 1.297-3.017 4.211-4.418 6.458-1.681 2.69-4.652 4.452-7.774 4.876-1.037.137-2.966.324-4.023-.265a1.86 1.86 0 0 1-.218-.139c-.007-.001-.013-.01-.019-.019l-.406-.485c-.02-.019-.03-.043-.041-.068-.409-1.506.259-3.073.285-4.628l-.002-.282-.158-5.409-.099-9.965c.023-2.157-.237-4.519.676-6.551 1.011-2.235 3.524-2.284 4.474-4.477.381-.874.583-1.811.951-2.695a7.73 7.73 0 0 1 6.58-4.593c4.387-.223 8.325 3.329 12.707 3.006 1.135-.089 2.241-.434 3.359-.64 3.554-.665 7.661.346 9.659 3.354.837 1.257 1.241 2.914.63 4.294z" class="B"/><g class="C"><path d="M434.704 373.519l-.03-.007c-.199-.053-.318-.258-.265-.458 6.062-22.744 30.026-26.031 35.633-25.626.203.016.361.194.346.4s-.194.361-.4.346c-5.484-.396-28.924 2.82-34.856 25.073-.05.19-.238.307-.428.272z"/><path d="M461.33 361.994c-.073-.013-.142-.048-.198-.105s-6.172-6.086-16.308-4.594c-.204.027-.395-.111-.425-.316s.112-.395.316-.425c10.528-1.548 16.886 4.744 16.95 4.808.145.147.144.384-.003.529-.091.09-.216.124-.332.103z"/></g><path d="M377.115 80.006l3.182 1.224v-7.011c0-5.558 4.433-6.89 9.246-4.112h0c4.813 2.779 8.715 9.537 8.715 15.095v1.018c1.092-.436 2.502-.267 4.044.624h0c3.464 2 6.271 6.863 6.271 10.862v.463l4.437 2.562c2.281 1.317 4.13 4.52 4.13 7.153s-1.849 3.701-4.13 2.384l-35.897-20.725c-2.281-1.317-4.13-4.519-4.13-7.153s1.851-3.701 4.132-2.384zm42.591-5.542l5.769 3.331-.049-.764V75.36c0-2.974 2.088-4.18 4.664-2.693 1.043.602 2.003 1.557 2.78 2.673.422-3.74 3.356-5.133 6.92-3.075 3.854 2.225 6.978 7.636 6.978 12.085v2.501c0 1.153-.213 2.123-.591 2.897l4.792 2.767c1.429.825 2.587 2.831 2.587 4.481s-1.158 2.319-2.587 1.494l-31.264-18.05c-1.429-.825-2.587-2.831-2.587-4.481s1.159-2.32 2.588-1.495z" fill="#e6e6e6"/><path d="M397.368 226.232c-4.2 7.101-8.241 13.27-11.078 16.227-5.387 2.506-18.045 6.358-22.998 7.003-.878.114-1.76-.11-2.486-.585-1.947-1.276-3.453-1.483-5.506-2.194-1.607-.556-2.288-1.324-2.59-1.032-.388.375-.811 1.442.168 2.547.492.555 1.389 1.162 2.544 1.903 0 0-3.541.945-6.704.115-4.287-1.125-6.311.936-3.412 5.591 1.038 1.667 5.126 4.336 13.41 3.615 2.387-.207 5.831-.407 8.802-1.041 7.946-1.696 16.778-3.339 22.208-4.961 1.37-.409 3.817-1.994 5.274-3.655 9.134-10.412 12.159-17.83 16.163-24.572l-.346-11.017c-6.473-.201-9.935 6.113-13.449 12.056z" class="I"/><path d="M411.934 213.975s-5.653-1.202-9.902 4.234c-4.446 5.689-12.307 19.352-12.307 19.352s2.579 6.851 9.518 7.977l11.148-15.058c0 0 5.279-10.423 1.543-16.505z" class="H"/><path d="M428.769 367.536h7.267v12.958h-7.267zm-17.93-.691l-7.263.26-.364-13.713 7.627-.26z" class="I"/><path d="M437.06 255.347c0 7.228-1.064 65.398-1.064 65.398.169 2.08 2.041 5.915 1.636 13.903-.551 10.852-1.285 39.368-1.285 39.368s-3.528 2.147-8.092.166l-7.194-50.714c-1.136-9.385-4.047-40.52-4.047-40.52l-3.939 36.741s1.34 5.597.901 12.029c-.34 4.974-2.677 30.879-2.677 30.879s-3.421 2.418-8.391.669l-4.218-43.577c-.096-5.203 2.417-64.419 2.417-64.419l35.953.077z" class="J"/><path d="M428.769 376.758v-1.082c-.695.315-2.311 6.736-5.195 9.475-2.292 2.178-5.419 4.693-6.215 7.121-.827 2.525 4.355 3.919 6.496 3.524 2.488-.459 6.802-2.284 7.884-3.976s1.59-4.188 2.469-5.427 2.908-2.624 3.384-4.059c.261-.788-.049-2.515-.416-3.973-.337-1.338-.702-2.81-1.141-2.684v.825c-.528.609-1.987 1.213-3.633 1.279-1.062.041-3.642-.179-3.633-1.023zm-25.27-11.987c-.378.014-.685.568-1.517 1.507-1.006 1.134-2.651 2.357-4.275 3.204-2.721 1.419-8.012 3.601-10.406 4.725-1.496.702-1.426 2.584.12 3.655s5.279 1.843 9.762.798c2.442-.569 5.621-2.918 7.633-2.791s5.777.097 7.262-.97.891-3.343.471-5.3c-.458-2.136-1.031-5.466-1.71-5.32v.736c-.874 1.378-5.383 1.939-7.302.924l-.038-1.168zm13.516-81.824s-5.809-1.704-10.12-6.044c0 0 1.953 3.808 7.76 7.352l-1.242 32.811 3.602-34.119z" class="D"/><path d="M432.991 215.059s5.975 1.383 5.571 12.217l-1.257 17.258.035 25.899c-5.344 6.055-29.036 5.612-37.147-.485l1.467-42.444c.389-8.385 2.319-12.606 10.559-13.53l10.134.446 10.638.639z" class="B"/><g class="D"><path d="M425.355 192.535c0 6.224-4.844 11.269-10.819 11.269s-9.512-5.184-10.819-11.269c-2.392-11.129 4.844-11.269 10.819-11.269s10.819 5.045 10.819 11.269zm5.52 4.559l-2.325 9.454c-.665 1.334-2.041 1.713-2.041 1.713l.116-5.712 4.25-5.455z"/><path d="M428.793 185.461s1.19-.298 2.454 1.677c1.084 1.693 1.33 5.496-.371 9.956l-3.126.374 1.043-12.007z"/><path d="M429.943 187.105l3.833.071c.094-1.1-.688-2.007-1.747-2.027s-1.992.856-2.086 1.956z"/><path d="M430.412 186.197l2.84-2.731c-.701-.812-1.905-.859-2.689-.105a2.09 2.09 0 0 0-.151 2.836z"/></g><path d="M426.812 197.47c.627.39 1.521-.864 2.294-1.707s3.2-1.638 4.459 1.125c1.283 2.815-.886 5.492-2.69 6.389-3.225 1.603-4.25-.728-4.25-.728l-.261 12.862c-4.545 7.03-14.84 6.777-11.139-.34l.01-3.915s-3.102.49-4.615.247c-2.518-.405-4.102-2.474-4.866-5.313-1.227-4.559-1.693-8.241-.652-17.207 1.141-9.828 12.116-9.93 18.042-6.045s3.668 14.632 3.668 14.632z" class="I"/><path d="M413.131 187.349l7.841-.989c.569-.042 1.15-.067 1.701.082 2.013.544 1.753 2.884 2.073 4.519.55 2.815 1.007 7.587 2.066 7.608.315.006 1.514-2.065 2.294-2.805.505-.479.591-1.512.7-2.151.2-1.167.308-2.35.397-3.529l.172-3.016c-.005-1.124.017-2.268-.262-3.366-.254-.997-.72-1.743-1.402-2.52l-.2-.222c-1.293-1.394-2.942-2.439-4.693-3.161-2.513-1.036-5.236-1.449-7.94-1.726l-8.092-.975c-.155-.032-.321-.064-.469-.008-.232.089-.333.358-.38.601a3.34 3.34 0 0 0 1.357 3.295c-1.812.144-3.892-.8-5.638-1.273-.294-.08-.628-.155-.889.003-.18.109-.286.309-.35.509-.148.464-.115.965-.049 1.448.195 1.427.681 2.837 1.561 3.977 1.266 1.641 3.35 3.121 5.405 3.533 1.623.327 3.138.331 4.797.166z" class="D"/><path d="M415.235 211.157s5.62-1.179 7.585-2.267c1.315-.728 2.398-1.99 2.716-2.799 0 0-.368 1.737-1.543 3.301-1.437 1.913-8.758 3.322-8.758 3.322v-1.557z" class="K"/><path d="M416.586 196.007c0 .673.505 1.217 1.126 1.216s1.126-.549 1.126-1.222-.504-1.217-1.126-1.216-1.126.549-1.126 1.222zm1.809-4.857l2.41 1.385c.355-.721.104-1.616-.562-1.998s-1.493-.108-1.848.613z" class="D"/><path d="M415.744 204.11l-2.571 1.005c.254.768 1.036 1.165 1.746.887s1.08-1.124.825-1.892z" class="K"/><path d="M406.254 192.182l2.197-1.762c-.448-.655-1.303-.792-1.91-.305s-.735 1.412-.287 2.067zm.965 3.491c0 .673.504 1.217 1.126 1.215s1.126-.549 1.126-1.222-.504-1.217-1.126-1.216-1.126.55-1.126 1.223z" class="D"/><path d="M413.246 194.731l-.131 7.114-4.037-.926z" class="K"/><use href="#I" class="B"/><use href="#I" class="E"/><use href="#J" class="B"/><use href="#J" class="E"/><g class="B"><path d="M387.623 276.615c1.373 1.747 2.375 4.314 2.59 6.817-1.374-1.747-2.375-4.314-2.59-6.817zm14.563.189c-2.107-14.352-9.818-28.549-19.009-33.854-4.41-2.55-8.492-2.642-11.761-.73l-5.901 3.403c-.113.062-.226.123-.329.195-.257.144-.514.308-.761.483-.473.329-.925.699-1.357 1.121-.062.051-.124.123-.195.185-.185.185-.37.391-.545.596a11.39 11.39 0 0 0-.627.771 14.54 14.54 0 0 0-1.151 1.768 16.49 16.49 0 0 0-.514.977l-51.516-29.741-6.261 3.608v3.989l.534.308.494.288v.843l-1.028.596v2.323l7.566 16.017 7.484 4.328 2.488-3.012 6.6 3.948 3.793 6.497 4.174 2.406 5.233-4.636 6.425 3.711 2.159 8.903 10.764 6.21c.545 2.282 1.234 4.513 2.036 6.693a14.3 14.3 0 0 0 .247.699c3.578 9.407 9.273 17.456 15.688 21.167.823.473 1.624.864 2.416 1.162a12.18 12.18 0 0 0 1.347.452 9.98 9.98 0 0 0 1.203.267c1.326.236 2.611.226 3.814-.01l.524-.123a4.49 4.49 0 0 0 .73-.216l.555-.216a4.28 4.28 0 0 0 .576-.267c.185-.082.36-.175.535-.278.092-.051.185-.103.267-.154.041-.01.082-.041.124-.072l5.911-3.403c4.76-2.755 7.844-9.736 7.844-19.605-.001-2.508-.196-5.057-.576-7.597z"/><path d="M385.786 288.721c-2.471-1.427-4.475-5.668-4.475-9.473s2.004-5.733 4.475-4.306 4.475 5.668 4.475 9.473-2.004 5.733-4.475 4.306zm10.139-8.308c-2.107-14.341-9.818-28.539-19.009-33.843-4.256-2.457-8.193-2.642-11.401-.946-.113.062-.226.123-.329.195-.257.144-.514.308-.761.483-.473.329-.925.699-1.357 1.121-.062.051-.124.123-.195.185-.185.185-.37.391-.545.596a11.39 11.39 0 0 0-.627.771 14.54 14.54 0 0 0-1.151 1.768 16.49 16.49 0 0 0-.514.977c-.853 1.748-1.532 3.783-1.984 6.086l-55.792-32.219v3.989l.534.308.494.288v.843l-1.028.596v2.323l7.566 16.017 7.484 4.328 2.488-3.012 6.6 3.948 3.793 6.497 4.174 2.406 5.233-4.636 6.425 3.711 2.159 8.903 10.764 6.21c.545 2.282 1.234 4.513 2.036 6.693a14.3 14.3 0 0 0 .247.699c3.578 9.407 9.273 17.456 15.688 21.167.823.473 1.624.864 2.416 1.162a12.18 12.18 0 0 0 1.347.452 9.98 9.98 0 0 0 1.203.267c1.326.236 2.611.226 3.814-.01l.524-.123a4.49 4.49 0 0 0 .73-.216l.555-.216a4.28 4.28 0 0 0 .576-.267c.185-.082.36-.175.535-.278.092-.051.185-.103.267-.154.041-.01.082-.041.124-.072 4.564-2.878 7.495-9.756 7.495-19.389-.002-2.509-.208-5.059-.578-7.608z"/></g><path d="M390.26 284.412c0 3.804-2.005 5.737-4.472 4.308-2.478-1.429-4.482-5.665-4.482-9.468s2.005-5.736 4.482-4.307c.658.38 1.285.956 1.83 1.676.216 2.498 1.223 5.068 2.591 6.816.041.327.051.656.051.975z" class="E"/><path d="M402.761 284.402c0 9.869-3.084 16.85-7.844 19.605l-5.911 3.403c4.564-2.878 7.495-9.756 7.495-19.389 0-2.508-.206-5.058-.576-7.607-2.107-14.341-9.818-28.539-19.009-33.843-4.256-2.457-8.193-2.642-11.401-.946l5.901-3.403c3.269-1.912 7.351-1.82 11.761.73 9.191 5.305 16.901 19.502 19.009 33.854.38 2.538.575 5.087.575 7.596z" class="C E"/><use href="#K" class="B"/><use href="#K" opacity=".1"/><path d="M358.278 261.918v2.036l-56.018-32.343 1.028-.596v-.843z" class="G"/><path d="M358.278 262.761v1.193l-56.018-32.343 1.028-.596v-.01z" class="G"/><ellipse transform="matrix(.956 -.2934 .2934 .956 -64.6042 122.7807)" cx="376.915" cy="276.71" rx="14.791" ry="27.678" fill="none" stroke="#000" class="G"/><path d="M360.036 251.72c-.853 1.748-1.532 3.783-1.984 6.086l-55.792-32.219 6.261-3.608 51.515 29.741z" class="C E"/><path d="M432.506 254.853c2.926-5.533 6.261-17.953 7.922-24.221 2.359-8.903-1.459-14.505-5.793-14.73-2.718.414-11.642 32.889-11.642 32.889-.989.791-14.572 7.674-18.936 9.404-.773.307-1.634.294-2.416.009-2.096-.765-3.523-.62-5.574-.826-1.606-.161-2.419-.732-2.622-.388-.26.442-.381 1.545.788 2.367.588.414 1.559.783 2.798 1.222 0 0-2.32.804-5.415.736-4.195-.093-5.705 1.73-2.451 5.982 2.039 2.664 5.317 3.504 12.7.951 2.127-.736 5.009-2.166 7.691-3.14 5.546-2.015 6.97-2.233 11.227-3.666 6.143-2.069 10.424-4.134 11.723-6.589z" class="I"/><path d="M432.991 215.059c2.552.349 5.026.926 6.51 2.988s2.721 4.97 1.237 12.958-4.537 16.474-4.537 16.474-5.936 2.537-12.251-3.899l4.336-16.779c-.001 0 .742-10.9 4.705-11.742z" class="H"/><defs ><path id="B" d="M216.2 356.644l34.937-20.201c3.601-2.079 5.402-4.804 5.402-7.529l.015-4.86-36.249-20.44c-1.921-1.109-3.478-3.806-3.478-6.024v-43.075l-61.023 35.262-.002 43.074c0 2.218 1.557 4.915 3.478 6.024l30.836 17.768c7.203 4.16 18.881 4.159 26.084.001z"/><path id="C" d="M160.012 330.428c0 2.218 1.557 4.915 3.478 6.024l26.622 15.335c7.203 4.158 18.882 4.16 26.085.003l34.955-20.199c7.204-4.157 7.205-10.898.002-15.057l-26.639-15.345c-1.921-1.109-3.478-3.806-3.478-6.024l-.001-33.657-61.024 35.262v33.658z"/><path id="D" d="M256.548 324.058v4.859c0 2.731-1.807 5.441-5.401 7.53l-34.943 20.189c-3.454 2.008-7.931 3.012-12.449 3.092v-4.839c4.518-.06 8.995-1.104 12.449-3.092l34.943-20.21c3.593-2.068 5.401-4.798 5.401-7.529z"/><path id="E" d="M70.457 372.102l235.996-136.249c2.401-1.386 4.347-4.757 4.347-7.53V37.409c0-2.772-1.946-3.896-4.347-2.51L70.46 171.149c-2.401 1.386-4.347 4.757-4.347 7.53l-.003 190.913c0 2.772 1.947 3.896 4.347 2.51z"/><path id="F" d="M69.817 377.064c-2.409 1.064-5.742 1.024-7.79-.161-2.249-1.305-4.076-4.598-4.076-7.389v-17.383l8.152 4.719v17.383c0 2.53 1.606 3.674 3.714 2.831z"/><path id="G" d="M74.264 335.041l.002-153.655c0-1.663 1.168-3.686 2.608-4.518l223.157-128.84c1.441-.832 2.608-.157 2.608 1.506l.007 153.659c0 1.663-1.168 3.686-2.608 4.518L76.873 336.547c-1.441.832-2.609.157-2.609-1.506z"/><path id="H" d="M432.154 354.648s1.328-11.679 7.137-20.743 13.792-14.721 21.24-15.31 13.464 6.263 5.494 10.969-22.128 9.508-28.644 27.108l-5.227-2.024z"/><path id="I" d="M317.314 254.276l6.264-3.616 2.483-3.007-6.264 3.617-2.483 3.006"/><path id="J" d="M334.361 264.118l6.264-3.616 5.236-4.634-6.265 3.616-5.235 4.634"/><path id="K" d="M396.501 288.02c0 9.633-2.93 16.511-7.495 19.389l5.911-3.403c4.76-2.755 7.844-9.736 7.844-19.605 0-.364-.013-.731-.021-1.097l-6.262 3.615.023 1.101z"/></defs></svg>