<svg xmlns="http://www.w3.org/2000/svg" viewBox="0 0 500 500" xmlns:v="https://vecta.io/nano"><style><![CDATA[.B{fill:#407bff}.C{fill:#fff}.D{fill:#263238}.E{fill:#ffb573}.F{fill:#e0e0e0}.G{stroke-miterlimit:10}.H{stroke-linejoin:round}.I{stroke:#407bff}.J{stroke-linecap:round}]]></style><ellipse cx="250" cy="431.267" rx="193.89" ry="11.32" fill="#f5f5f5"/><path d="M238.395 341.53H45.305a5.71 5.71 0 0 1-5.7-5.71V64.39a5.71 5.71 0 0 1 5.7-5.66h193.09a5.71 5.71 0 0 1 5.71 5.71h0v271.38a5.71 5.71 0 0 1-5.71 5.71zM45.305 58.93a5.46 5.46 0 0 0-5.45 5.46v271.43a5.46 5.46 0 0 0 5.45 5.46h193.09a5.47 5.47 0 0 0 5.46-5.46V64.39a5.47 5.47 0 0 0-5.46-5.46H45.305zm409.4 282.6h-193.1a5.72 5.72 0 0 1-5.71-5.71V64.39a5.72 5.72 0 0 1 5.71-5.66h193.1a5.71 5.71 0 0 1 5.69 5.66v271.43a5.71 5.71 0 0 1-5.69 5.71zm-193.1-282.6a5.47 5.47 0 0 0-5.46 5.46v271.43a5.47 5.47 0 0 0 5.46 5.46h193.1a5.47 5.47 0 0 0 5.46-5.46V64.39a5.47 5.47 0 0 0-5.46-5.46h-193.1z" fill="#e6e6e6"/><path d="M44.73 392.21h41.21v.25H44.73zm83.88-2h41.33v.25h-41.33zm85.11 0h10v.25h-10zm-136.2 8.54h46.25v.25H77.52zm184.62-6.67h21.6v.25h-21.6zm30.5 0h27.93v.25h-27.93zm100.19 4.23h62.44v.25h-62.44z" class="F"/><path d="M0 382.398h500v.25H0z" fill="#ebebeb"/><path d="M334.835 79.48l-2.492 34.274a4.91 4.91 0 0 1-1.393 3.09c-.915.974-2.21 1.583-3.607 1.583H299.85c-1.016 0-1.933-.322-2.656-.881-1.127-.838-1.8-2.227-1.691-3.793l2.492-34.274c.181-2.582 2.418-4.674 5-4.674h27.491a4.3 4.3 0 0 1 4.349 4.675z" opacity=".8" class="F"/><path d="M322.911 94.997c-.354 5.056-4.009 9.154-8.164 9.154s-7.237-4.098-6.884-9.154 4.009-9.154 8.164-9.154 7.237 4.099 6.884 9.154zm3.466 21.069h-25.159c-1.595 0-2.7-.765-2.74-1.839-.058-1.555 8.101-8.304 15.841-7.719.028.002.056 0 .085 0h0 .092c4.742.02 9.207 2.025 12.959 4.991 3.733 2.951.2 4.567-1.078 4.567z" class="C"/><g class="F"><path d="M193.021 117.18c-5.352.067-10.065-4.237-10.507-9.593s3.554-9.769 8.906-9.836 10.066 4.237 10.507 9.594-3.553 9.768-8.906 9.835zm-1.175-14.267a4.19 4.19 0 0 0-4.173 4.609c.207 2.51 2.415 4.526 4.923 4.495s4.38-2.099 4.174-4.609-2.416-4.526-4.924-4.495z"/><path d="M193.502 102.164l-3.684.046-1.954-23.717 3.684-.046z"/><path d="M195.039 79.511l-6.917.087-.304-3.688 6.917-.086zm.396 4.739l-6.504.081-.304-3.688 6.504-.081zm.561 6.684l-5.677.071-.304-3.688 5.678-.071z"/></g><path d="M79.309 318.768a8.94 8.94 0 0 0 .112.89c.335 1.93 1.337 3.67 2.728 4.97 1.605 1.5 3.74 2.43 6.03 2.43h84.49c4.28 0 7.573-3.24 7.723-7.4a8.56 8.56 0 0 0-.012-.89c-.16-2.28-1.235-4.36-2.839-5.85-1.605-1.5-3.74-2.43-6.03-2.43H87.02c-4.58 0-8.031 3.71-7.711 8.28z" fill="#f0f0f0"/><path d="M180.388 319.657c-.005.27-.029.54-.074.8-.222-2.16-1.278-4.12-2.813-5.54-1.604-1.5-3.737-2.43-6.027-2.43l-89.852.14c1.373-1.33 3.267-2.14 5.397-2.14h84.49c2.29 0 4.424.93 6.027 2.43 1.604 1.49 2.687 3.57 2.847 5.85l.005.89z" class="F"/><g class="C"><use href="#B"/><use href="#B" x="-23.107"/><use href="#B" x="-46.214"/><use href="#B" x="-69.321"/></g><path d="M152.735 307.569h-3.938l.018-1h3.937zm16.938 0H156.82l.017-1h12.854z" class="F"/><g opacity=".8" class="F"><path d="M269.385 302.527l15.934 24.532 52.558-52.558c.462-.462-.175-1.181-.689-.778L287.1 312.982l-9.459-15.251-8.256 4.796z"/></g><path d="M259.856 127.955l-37.739 141.151h12.695l37.323-141.151zm19.593 0l-37.74 141.151h25.182l37.323-141.151z" opacity=".1" class="C"/><path d="M415.31 255.315l7.961-113.304c.263-3.743-2.573-6.776-6.335-6.772l-197.734.172c-3.762.003-7.025 3.041-7.288 6.784l-7.961 113.304c-.263 3.743 2.573 6.776 6.335 6.772l197.734-.172c3.762-.004 7.025-3.041 7.288-6.784z" class="D"/><path d="M412.773 252.844l7.961-113.304c.263-3.743-2.573-6.776-6.335-6.772l-197.734.172c-3.762.003-7.025 3.041-7.288 6.784l-7.961 113.304c-.263 3.744 2.573 6.776 6.335 6.772l197.734-.172c3.762-.003 7.025-3.041 7.288-6.784z" class="B"/><g class="C"><path d="M407.531 254.516a2.15 2.15 0 0 1-1.493.579l-197.734.171c-1.33.001-2.415-1.157-2.322-2.477l7.961-113.303c.05-.712.395-1.173.677-1.436s.771-.577 1.493-.579l197.735-.171c1.33-.001 2.415 1.156 2.322 2.477l-7.961 113.303c-.052.713-.397 1.174-.678 1.436z" opacity=".6"/><path d="M341.759 192.229h-69.406a2.55 2.55 0 0 0-2.478 2.233l-1.062 10.149c-.129 1.233.771 2.233 2.01 2.233h69.406a2.55 2.55 0 0 0 2.478-2.233l1.062-10.149c.129-1.233-.771-2.233-2.01-2.233z"/><use href="#C"/><use href="#C" x="18.701"/><use href="#C" x="37.402"/><path d="M336.711 233.685H325.88a2.55 2.55 0 0 0-2.478 2.233l-1.062 10.149c-.129 1.233.771 2.233 2.01 2.233h10.831a2.55 2.55 0 0 0 2.478-2.233l1.062-10.149c.13-1.233-.77-2.233-2.01-2.233z"/></g><path d="M281.059 226.771h43.416c2.111 0 4-1.703 4.22-3.803l.522-4.983c.22-2.101-1.313-3.803-3.424-3.803h-43.416c-2.111 0-4 1.703-4.22 3.803l-.521 4.983c-.221 2.1 1.312 3.803 3.423 3.803z" fill="none" class="G H I"/><path d="M344.26 171.094h-69.406a2.55 2.55 0 0 0-2.478 2.233l-1.062 10.149c-.129 1.233.771 2.233 2.01 2.233h69.406a2.55 2.55 0 0 0 2.478-2.233l1.062-10.149c.13-1.233-.771-2.233-2.01-2.233z" class="C"/><g class="D"><use href="#D"/><path d="M288.427 199.537c.143-1.365-.854-2.472-2.226-2.472s-2.6 1.107-2.743 2.472.854 2.472 2.225 2.472 2.601-1.107 2.744-2.472zm7.633 0c.143-1.365-.854-2.472-2.226-2.472s-2.6 1.107-2.743 2.472.853 2.472 2.226 2.472a2.82 2.82 0 0 0 2.743-2.472zm7.634 0c.143-1.365-.853-2.472-2.225-2.472s-2.6 1.107-2.743 2.472.854 2.472 2.226 2.472a2.82 2.82 0 0 0 2.742-2.472zm7.783 0c.143-1.365-.854-2.472-2.225-2.472s-2.6 1.107-2.743 2.472.854 2.472 2.226 2.472a2.82 2.82 0 0 0 2.742-2.472zm-28.183-21.135c.143-1.365-.854-2.472-2.226-2.472s-2.6 1.107-2.743 2.472.854 2.472 2.225 2.472a2.82 2.82 0 0 0 2.744-2.472zm7.634 0c.143-1.365-.853-2.472-2.226-2.472a2.82 2.82 0 0 0-2.743 2.472c-.143 1.365.853 2.472 2.225 2.472a2.82 2.82 0 0 0 2.744-2.472zm7.633 0c.143-1.365-.854-2.472-2.225-2.472s-2.6 1.107-2.743 2.472.854 2.472 2.225 2.472a2.82 2.82 0 0 0 2.743-2.472z"/><use href="#D" x="25.402" y="-21.135"/><use href="#D" x="33.035" y="-21.135"/><path d="M321.462 178.402c.143-1.365-.854-2.472-2.225-2.472s-2.6 1.107-2.743 2.472.853 2.472 2.226 2.472a2.82 2.82 0 0 0 2.742-2.472z"/></g><g class="B"><path d="M314.978 148.712l-.541 5.126c-.049.462-.465.836-.929.836a.74.74 0 0 1-.752-.836l.541-5.126c.175-1.655-1.036-3.003-2.7-3.003h-1.843c-1.663 0-3.159 1.348-3.333 3.003l-.469 4.761h-1.681l.469-4.761c.272-2.578 2.601-4.676 5.191-4.676h1.843c2.589 0 4.476 2.097 4.204 4.676z"/><path d="M315.012 153.65l-1.054 9.987c-.067.632-.634 1.143-1.269 1.143h-10.035a1.01 1.01 0 0 1-1.028-1.143l1.054-9.987c.043-.408.297-.767.641-.968.188-.111.404-.175.628-.175h10.035c.218 0 .414.06.576.164.312.2.496.563.452.979z"/></g><path d="M393.309 132.108l-24.437.145m37.757-.211l-8.637.038" fill="none" stroke="#263238" class="G H J"/><g opacity=".3" class="C"><path d="M235.099 137.442h27.976l-28.441 117.825h-22.516-.061c-2.786-.015-4.752-2.681-4.099-5.387l27.141-112.438zm40.397 0h11.877l-28.441 117.825h-11.877z"/></g><path d="M86.654 100.663h5.676c-5.713 0-10.021 4.631-9.621 10.345l12.048 172.298c.399 5.713 5.355 10.345 11.068 10.345h-5.676c-5.713 0-10.668-4.631-11.068-10.345L77.032 111.007c-.399-5.713 3.908-10.344 9.622-10.344z" class="B"/><path d="M86.654 100.663h5.676c-5.713 0-10.021 4.631-9.621 10.345l12.048 172.298c.399 5.713 5.355 10.345 11.068 10.345h-5.676c-5.713 0-11.468-4.631-11.868-10.345L76.232 111.007c-.399-5.713 4.708-10.344 10.422-10.344z" class="D"/><path d="M101.841 293.65h69.497c5.713 0 10.021-4.631 9.621-10.345l-12.048-172.298c-.4-5.713-5.355-10.345-11.068-10.345H88.346c-5.713 0-10.021 4.631-9.621 10.345l12.048 172.298c.4 5.713 5.355 10.345 11.068 10.345z" class="B"/><g opacity=".6" class="C"><path d="M157.656 103.982c3.967 0 7.421 3.23 7.698 7.199l12.048 172.297c.129 1.848-.46 3.574-1.659 4.861s-2.868 1.99-4.708 1.99h-69.497c-3.967 0-7.42-3.229-7.698-7.199L81.791 110.834c-.129-1.847.46-3.574 1.659-4.861s2.868-1.99 4.708-1.99h69.498z"/></g><g opacity=".3" class="C"><path d="M138.033 290.33h-27.718l22.859-186.348h22.308a7.04 7.04 0 0 1 5.139 2.213L138.033 290.33zm-32.693 0h-6.236l22.859-186.348h6.235z"/></g><path d="M103.176 185.404h50.341m-43.847 7.444h39.432" fill="none" stroke="#fff" class="G H J"/><path d="M104.678 151.078l.069 1.978h-1.29l-.069-1.994-2.284-3.589h1.37l1.576 2.48 1.402-2.48h1.267l-2.041 3.605zm2.094-.813c-.059-1.659 1.188-2.887 2.949-2.887 1.752 0 3.094 1.221 3.152 2.887s-1.197 2.887-2.949 2.887c-1.76 0-3.093-1.229-3.152-2.887zm4.795 0c-.037-1.061-.812-1.786-1.807-1.786s-1.719.726-1.682 1.786.811 1.787 1.807 1.787 1.719-.727 1.682-1.787zm2.247.335l-.109-3.126h1.29l.107 3.079c.037 1.061.515 1.499 1.296 1.499.788 0 1.227-.439 1.19-1.499l-.107-3.079h1.274l.109 3.126c.058 1.643-.85 2.552-2.435 2.552s-2.557-.909-2.615-2.552zm9.968 2.456l-1.13-1.555h-.064-1.123l.055 1.555h-1.29l-.195-5.583h2.413c1.49 0 2.448.774 2.492 2.026.03.837-.37 1.452-1.085 1.763l1.314 1.794h-1.387zm-1.369-4.53h-1.053l.068 1.946h1.052c.788 0 1.174-.367 1.152-.973-.021-.614-.432-.973-1.219-.973zm5.482 1.739c-.059-1.683 1.189-2.887 2.925-2.887.964 0 1.781.351 2.329.989l-.802.766c-.389-.431-.866-.654-1.424-.654-1.044 0-1.759.733-1.722 1.786a1.78 1.78 0 0 0 1.847 1.787c.558 0 1.02-.224 1.378-.662l.855.766c-.503.646-1.295.997-2.267.997-1.727-.001-3.06-1.206-3.119-2.888zm5.724 0c-.059-1.659 1.189-2.887 2.949-2.887 1.752 0 3.094 1.221 3.152 2.887s-1.197 2.887-2.949 2.887c-1.76 0-3.093-1.229-3.152-2.887zm4.795 0c-.037-1.061-.812-1.786-1.807-1.786s-1.719.726-1.682 1.786.811 1.787 1.807 1.787 1.719-.727 1.682-1.787zm2.186-2.792h2.533c1.823 0 3.112 1.101 3.172 2.792s-1.153 2.792-2.977 2.792h-2.533l-.195-5.584zm2.627 4.522c1.107 0 1.809-.662 1.771-1.73s-.785-1.73-1.893-1.73h-1.179l.121 3.461h1.18zm8.433.024l.036 1.037h-4.317l-.195-5.583h4.214l.036 1.037h-2.932l.042 1.212h2.589l.036 1.005h-2.589l.045 1.292h3.035z" class="B"/><path d="M114.378 173.806l.04 2.244h-10.527l-.031-1.774 5.577-5.385c1.364-1.326 1.595-2.163 1.58-2.957-.022-1.306-.934-2.061-2.688-2.061-1.387 0-2.541.469-3.319 1.489l-1.882-1.428c1.076-1.489 3.04-2.366 5.386-2.366 3.101 0 5.128 1.57 5.172 4.1.024 1.387-.341 2.652-2.288 4.508l-3.751 3.631h6.731zm11.634-2.039c.042 2.407-1.737 4.487-5.573 4.487-2.02 0-4.05-.612-5.394-1.652l1.106-2.061c1.034.856 2.595 1.408 4.206 1.408 1.897 0 3.005-.837 2.981-2.162-.022-1.286-.976-2.122-3.138-2.122h-1.306l-.031-1.815 3.175-3.855h-6.487l-.038-2.223h9.731l.03 1.774-3.396 4.121c2.701.346 4.096 1.957 4.134 4.1zm13.324.183c.047 2.652-2.23 4.304-5.78 4.304s-5.842-1.652-5.889-4.304c-.027-1.571.768-2.733 2.225-3.406-1.153-.633-1.804-1.653-1.827-2.999-.043-2.448 2.072-3.978 5.234-3.978 3.183 0 5.372 1.53 5.415 3.978.023 1.346-.611 2.366-1.763 2.999 1.501.673 2.358 1.835 2.385 3.406zm-2.674-.081c-.025-1.408-1.264-2.285-3.223-2.285s-3.127.877-3.102 2.285c.025 1.448 1.224 2.305 3.182 2.305s3.168-.858 3.143-2.305zm-5.984-6.202c.021 1.224 1.055 1.999 2.728 1.999 1.693 0 2.721-.775 2.699-1.999-.022-1.285-1.137-2.02-2.769-2.02s-2.681.735-2.658 2.02zm21.959 6.283c.047 2.652-2.23 4.304-5.78 4.304s-5.842-1.652-5.889-4.304c-.027-1.571.768-2.733 2.225-3.406-1.153-.633-1.804-1.653-1.827-2.999-.043-2.448 2.072-3.978 5.234-3.978 3.183 0 5.372 1.53 5.415 3.978.024 1.346-.611 2.366-1.763 2.999 1.501.673 2.357 1.835 2.385 3.406zm-2.674-.081c-.025-1.408-1.264-2.285-3.223-2.285s-3.127.877-3.102 2.285c.025 1.448 1.224 2.305 3.182 2.305s3.168-.858 3.143-2.305zm-5.985-6.202c.022 1.224 1.055 1.999 2.728 1.999 1.693 0 2.721-.775 2.699-1.999-.022-1.285-1.137-2.02-2.77-2.02s-2.679.735-2.657 2.02z" class="D"/><g fill="none" class="I G"><path d="M76.719 125.636l1.773 24.171m-2.581-35.182l.468 6.379m46.991-30.411V75.877m-11.649 17.829l-7.355-12.736m38.008 0l-7.355 12.742" class="H J"/><path d="M313.892 351.759a213.09 213.09 0 0 0-6.068 62.089"/></g><g class="B"><path d="M309.221 350.897c.045 1.867 1.719 8.468 3.587 8.423s3.22-6.72 3.175-8.587a3.38 3.38 0 0 0-3.462-3.299c-1.868.046-3.345 1.597-3.3 3.463zm7.273 20.991c-.045-1.867-1.719-8.468-3.586-8.423s-3.221 6.719-3.175 8.587a3.38 3.38 0 0 0 3.462 3.299c1.867-.046 3.344-1.596 3.299-3.463zm-14.132-6.859c1.867-.045 8.468-1.719 8.423-3.587s-6.719-3.22-8.587-3.175-3.344 1.596-3.299 3.463 1.596 3.344 3.463 3.299zm20.99-7.273c-1.867.045-8.468 1.719-8.423 3.586s6.719 3.22 8.587 3.175a3.38 3.38 0 0 0 3.299-3.462c-.045-1.867-1.596-3.344-3.463-3.299z"/><path d="M302.864 356.543c1.352 1.288 7.204 4.772 8.492 3.42s-2.474-7.029-3.826-8.317a3.38 3.38 0 0 0-4.781.116c-1.288 1.352-1.237 3.492.115 4.781zm19.986 9.699c-1.352-1.288-7.203-4.772-8.492-3.42s2.474 7.028 3.826 8.317a3.382 3.382 0 1 0 4.666-4.897zm-14.842 5.143c1.288-1.352 4.772-7.204 3.419-8.492s-7.028 2.474-8.317 3.826a3.38 3.38 0 1 0 4.898 4.666zm9.699-19.985c-1.288 1.352-4.772 7.203-3.42 8.492s7.029-2.474 8.317-3.827a3.38 3.38 0 0 0-.116-4.781c-1.352-1.288-3.493-1.236-4.781.116z"/></g><path d="M308.854 361.49c.053 2.211 1.889 3.961 4.1 3.907s3.961-1.889 3.907-4.1-1.89-3.961-4.101-3.907-3.96 1.888-3.906 4.1z" class="C"/><use href="#E" class="B"/><use href="#E" opacity=".5" class="C"/><use href="#F" class="B"/><use href="#F" opacity=".5" class="C"/><path d="M328.699 420.342c0 7.97-9.49 14.42-21.19 14.42-11.71 0-21.19-6.45-21.19-14.42 0-4.03 2.43-7.68 6.36-10.29 2.27-1.52 5.04-2.69 8.12-3.38h13.42c3.17.72 6.01 1.93 8.31 3.51 3.82 2.61 6.17 6.19 6.17 10.16z" class="B"/><path d="M314.219 406.672c3.17.72 6.01 1.93 8.31 3.51 3.82 2.61 6.17 6.19 6.17 10.16 0 7.97-9.49 14.42-21.19 14.42-11.71 0-21.19-6.45-21.19-14.42 0-4.03 2.43-7.68 6.36-10.29 2.27-1.52 5.04-2.69 8.12-3.38h13.42z" opacity=".8" class="C"/><path d="M307.57 407.97v7.129" fill="none" class="G I"/><path d="M323.462 406.45l-1.125 3.504-.018.036h-29.63l-.062-.187-1.071-3.353z" class="B"/><path d="M326.196 423.238c-2.042 2.951-4.95 5.306-8.139 6.998-5.09 2.701-26.501 3.398-28.944-8.75-.034-.169-.091-.333-.122-.504-.584-3.178 2.244-6.005 5.46-5.683 1.998.2 4.084-.038 6.07-.34 7.66-1.167 15.557-.739 23.049 1.236 3.06.807 4.427 4.44 2.626 7.043z" class="D"/><g class="B"><path d="M172.51 419.199c.375-.134.624-.43.741-.879.088-.339-.039-.561-.161-.688-.771-.805-3.899-.234-4.253-.166-.082.016-.146.077-.164.158s.015.163.082.21c.519.367 1.277.852 2.03 1.156.626.252 1.248.38 1.725.209zm.276-1.286c.051.053.104.136.06.305-.081.314-.238.508-.479.595-.567.204-1.652-.179-2.953-1.031 1.257-.192 2.967-.297 3.372.131z"/><path d="M168.903 417.87c.957-.119 3.159-1.249 3.352-2.226.037-.187.031-.539-.428-.791-.29-.161-.601-.187-.922-.076-1.207.413-2.18 2.715-2.222 2.813-.028.067-.018.145.027.203.023.029.053.051.086.065s.07.016.107.012zm2.72-2.661c.234.129.242.258.222.355-.118.596-1.583 1.521-2.611 1.816.365-.75 1.087-1.971 1.807-2.218.175-.06.338-.058.496.006.029.012.058.026.086.041z"/></g><path d="M159.409 413.84l8.141 3.29 7.105-18.81-8.141-3.29z" class="E"/><path d="M168.582 416.464l-9.146-3.697a.7.7 0 0 0-.878.285l-4.014 6.699c-.416.695-.063 1.655.71 1.952l8.847 3.297c2.474 1 5.984 2.714 9.401 4.095 3.342 1.351 4.987-1.87 3.69-2.746-5.816-3.929-6.047-6.198-7.454-8.843-.255-.477-.669-.846-1.156-1.042z" class="D"/><path d="M174.551 407.549l-14.139-5.715 1.295-5.182 15.17 5.55z" class="B"/><path d="M188.707 189.835c-2.868 8.303-11.361 27.863-17.904 19.716-1.168-1.454-2.164-3.029-2.858-4.76-2.778-6.854-3.461-17.954-3.813-20.38l-2.229-7.609a1.46 1.46 0 0 1-.06-.404l-.036-4.345c0-1.761 1.419-2.808 3.341-2.647 0 0 3.1-.362 3.1 1.49l.604 6.521h-.02c.312 2.275-.594 5.435-.06 7.518 1.993 7.83 4.749 8.182 6.48 16.263l6.723-15.921c2.908.361 7.678 1.82 6.732 4.558z" class="E"/><path d="M178.452 212.534c-1.954 3.014-6.35 3.188-8.469.289-1.295-1.772-2.321-3.724-2.767-5.195-2.597-8.524-4.207-13.808-4.428-22.715 1.812-1.882 4.76-2.586 7.226-1.711l4.257 14.432s8.675-21.55 12.177-22.325c4.136-.906 5.857 2.78 7.598 7.319 1.255 3.267-9.944 21.189-15.594 29.906z" class="B"/><path d="M213.481 153.745c-.981 5.002-3.184 15.914.316 19.252 0 0-1.367 5.074-10.662 5.074-10.22 0-4.884-5.074-4.884-5.074 5.578-1.332 5.434-5.471 4.463-9.357l10.767-9.895z" class="E"/><path d="M197.848 141.948c.06 0 .121-.014.178-.042a.4.4 0 0 0 .178-.536c-.989-1.975-2.819-2.204-2.896-2.213a.4.4 0 0 0-.442.352.4.4 0 0 0 .35.441h0c.061.007 1.485.201 2.274 1.777.071.14.212.22.358.221z" class="D"/><path d="M194.801 146.319s-1.505 2.764-2.939 4.009c.788.942 2.35.749 2.35.749l.589-4.758z" fill="#ed893e"/><g class="D"><path d="M195.604 144.856c.144.665-.091 1.28-.526 1.374s-.903-.368-1.047-1.033.091-1.28.525-1.374.903.369 1.048 1.033z"/><path d="M194.756 143.819l-1.696-.114c0 0 1.089 1.069 1.696.114z"/></g><path d="M159.979 169.052v.02c0-.01-.01-.01-.01-.02h.01z" class="E"/><path d="M188.347 185.566c1.771-1.621 2.969-1.137 3.784.151.805 3.744-3.965 11.584-5.887 14.553l2.103-14.704z" opacity=".2"/><path d="M229.304 190.497c-.23 4.12-.62 9.31-1.25 15.84-.66 6.89-1.6 15.26-2.89 25.43-13.59 0-27.82-.21-34.43-.21.553-13.508.757-27.195-5.303-54.081-.318-1.413.607-2.811 2.033-3.065 2.745-.489 7.293-1.188 11.921-1.414 5.76-.28 10.48-.46 15.55 0 6.67.61 14.25 2.16 14.25 2.16s.839 2.48.119 15.34z" class="B"/><path d="M229.304 190.497c-.23 4.12-.62 9.31-1.25 15.84-3.66-4.24-7.12-18.84-6.02-23.83 2.7 1.84 5.2 4.67 7.11 7.2.06.24.12.499.16.79z" opacity=".2"/><g class="E"><path d="M264.593 208.8l6.964-3.916 1.301 7.13s-5.902 2.261-9.027.677l.762-3.891z"/><path d="M276.222 205.694l.484 2.327c.152.732-.152 1.483-.77 1.903l-3.077 2.09-1.301-7.13 2.408-.604c1.017-.256 2.043.387 2.256 1.414zm-53.625-22.273c2.232 4.542 10.418 21.688 14.016 25.652l.704.739.352.368c.12.124.216.234.408.402.675.635 1.394 1.168 2.122 1.604 1.46.875 2.939 1.388 4.361 1.76 2.848.712 5.554.828 8.179.777 5.261-.206 10.183-1.089 15.1-2.565l-.894-4.175c-2.305.196-4.727.338-7.071.377-2.353.065-4.693-.001-6.95-.22-2.25-.195-4.442-.589-6.296-1.225-.915-.325-1.722-.739-2.325-1.174a4.59 4.59 0 0 1-.744-.663c-.04-.031-.141-.156-.226-.258l-.261-.312-.522-.622c-2.763-3.459-10.053-20.137-12.241-24.306l-7.712 3.841z"/></g><path d="M264.483 215.895c-5.676 3.059-12.59 3.734-18.749 1.822-5.857-1.822-11.07-6.069-14.09-11.413-3.613-5.314-13.223-20.333-12.016-24.218 1.429-4.64 4.469-7.518 9.551-6.27 3.573.866 10.385 18.2 13.676 25.134 1.298 1.932 3.774 4.992 6.542 5.938 4.891 1.691 8.494.956 13.617.232.936.564.866 1.429 1.339 2.405.966 1.972 1.127 4.418.13 6.37z" class="B"/><path d="M218.523 145.725c-1.534 8.225-2.008 11.738-6.72 15.474-7.088 5.62-16.854 1.936-17.808-6.581-.859-7.666 1.795-19.828 10.315-22.123 8.394-2.259 15.748 5.006 14.213 13.23z" class="E"/><path d="M247.7 191.24c-1.57 1.79-2.065 2.826-4.245 3.796s-6.939.125-8.449-1.725c.49 1.44 3.354 4.029 4.854 4.229-3.32 1.94-7.99 1.12-10.46-1.84.24 1.75 1.89 3.32 3.56 3.91-19.163.495-11.094-8.523-23.086-21.346-13.285-14.205-10.404-25.944-10.404-25.944-.01-2.03-.46-5.4-2.61-8.14-1.92-2.46-1.36-5.78-.75-7.64.89-2.73 3.6-3.69 6.2-3.85.458-2.694 5.962-2.198 6.666-1.748.604.386.758.354 1.361-.033 1.353-.867 4.752-1.772 8.392 1.171 2.222 1.797 4.595 5.02 4.675 11.88.083 7.134-3.321 15.597 8.471 26.435 6.95 6.387 3.628 20.097 15.825 20.845z" class="D"/><path d="M197.89 146.346c-1.011 1.4-1.301 3.14-1.078 4.544.335 2.111 2.393 2.251 3.883.898 1.341-1.218 2.782-3.784 1.684-5.534-1.082-1.724-3.333-1.508-4.489.092z" class="E"/><path d="M216.448 231.763s-4.083 57.407-8.692 95.272c-1.381 11.345-4.839 22.344-10.215 32.473l-22.587 42.558-11.561-4.547s7.964-40.454 23.583-62.511c0 0-11.658-65.93 3.6-103.447l25.872.202z" class="D"/><path d="M200.728 245.665l5.326 41.472c-7.091-9.301-12.522-22.276-5.326-41.472z" opacity=".2"/><g class="B"><path d="M245.641 424.59c.267-.292.347-.668.236-1.118-.083-.339-.302-.478-.47-.534-1.064-.356-3.556 1.59-3.837 1.813-.065.051-.092.136-.07.215s.09.137.173.148c.633.085 1.534.164 2.344.086.674-.066 1.284-.24 1.624-.61zm-.368-1.264c.07.023.157.072.198.242.077.315.032.559-.14.746-.404.441-1.545.603-3.1.45 1.02-.749 2.48-1.629 3.042-1.438z"/><path d="M241.821 425.077c.789-.546 2.197-2.559 1.903-3.512-.056-.182-.229-.49-.755-.502-.333-.009-.62.112-.851.357-.87.921-.635 3.403-.624 3.509.007.072.053.136.121.166.034.015.071.021.107.017s.069-.013.099-.035zm1.138-3.604c.268.006.336.116.366.211.179.581-.675 2.073-1.443 2.808-.034-.831.022-2.242.541-2.792.126-.133.271-.207.441-.223a.99.99 0 0 1 .095-.004z"/></g><path d="M231.516 425.892l8.759-.845-2.673-19.894-8.759.844z" class="E"/><path d="M240.869 423.983l-9.84.948c-.358.035-.624.307-.641.656l-.359 7.769c-.037.806.732 1.491 1.557 1.398l9.386-1.163c2.662-.257 6.579-.359 10.255-.713 3.596-.347 3.516-3.951 1.953-4.127-7.008-.791-8.292-2.69-10.795-4.379-.45-.305-.992-.44-1.516-.389zm-15.758-192.234s11.205 68.51 13.364 109.094l.403 72.695-9.066 1.769s-13.136-46.378-14.647-73.184c-4.01-71.128-27.177-71.245-13.239-110.501l23.185.127z" class="D"/><path d="M241.889 413.837l-15.013 2.056-1.521-5.765 16.045-2.087z" class="B"/><path d="M159.999 169.123h-.03l.01-.05c0 .02.01.03.02.05z" class="E"/><use href="#G" class="B"/><use href="#G" opacity=".1" class="C"/><use href="#H" class="B"/><use href="#H" opacity=".4" class="C"/><path d="M169.73 176.35c.01.18-.05.35-.17.48-.12.12-.29.19-.47.19h-6.81c-.39 0-.72-.32-.74-.71l-.89-16.89a.61.61 0 0 1 .17-.47c.12-.13.29-.2.47-.2h6.81c.39 0 .72.32.74.71l.06 1.21.83 15.68z" class="D"/><g opacity=".1" class="C"><path d="M168.9 160.67l-2.26 16.35h-2.71l2.56-18.27h1.61c.39 0 .72.32.74.71l.06 1.21zm-5.95 16.35h-.611l2.561-18.269h.612z"/></g><path d="M188.521 233.702a73.95 73.95 0 0 0-8.032 32.347c17.022 13.188 32.831-2.257 52.289.352-.679-8.788-3.664-25.049-7.21-33.119-12.858.543-24.9-.74-37.047.42z" class="B"/><path d="M190.292 230.133s-1.373 3.522-.98 3.522h35.677c.307 0 .561-.15.58-.343l.307-3.045c.021-.211-.245-.39-.58-.39h-34.45c-.254.001-.478.104-.554.256z" class="C"/><g class="B"><use href="#I"/><use href="#I" x="22.364"/></g><defs ><path id="B" d="M165.93 314.484l.283 4.042 3.788-1.403.859 1.995-3.868 1.276 2.702 3.391-1.746 1.277-2.63-3.524-2.101 3.524-1.87-1.277 2.192-3.391-4.011-1.276.578-1.983 4.019 1.352-.28-4.003h2.085z"/><path id="C" d="M280.608 233.685h-10.831a2.55 2.55 0 0 0-2.478 2.233l-1.062 10.149c-.129 1.233.771 2.233 2.01 2.233h10.831a2.55 2.55 0 0 0 2.478-2.233l1.062-10.149c.13-1.233-.77-2.233-2.01-2.233z"/><path id="D" d="M280.793 199.537c.143-1.365-.854-2.472-2.225-2.472s-2.6 1.107-2.743 2.472.854 2.472 2.226 2.472a2.82 2.82 0 0 0 2.742-2.472z"/><path id="E" d="M308.28 391.254s.691-10.213 6.296-11.829 7.663-3.805 7.663-3.805-.568 15.831-13.959 15.634z"/><path id="F" d="M307.539 399.072s-.691-10.213-6.296-11.829-7.663-3.805-7.663-3.805.568 15.83 13.959 15.634z"/><path id="G" d="M160.961 158.253h.574a.98.98 0 0 0-.991 1.046l.913 17.414c.03.577.523 1.046 1.1 1.046h-.574c-.577 0-1.07-.468-1.1-1.046l-.913-17.414a.98.98 0 0 1 .991-1.046z"/><path id="H" d="M162.154 177.759h7.024a.98.98 0 0 0 .991-1.046l-.913-17.414c-.03-.577-.523-1.046-1.1-1.046h-7.024a.98.98 0 0 0-.991 1.046l.913 17.414c.03.577.523 1.046 1.1 1.046z"/><path id="I" d="M195.318 233.955h-.923c-.184 0-.324-.095-.311-.21l.433-3.956c.013-.116.173-.21.357-.21h.923c.184 0 .324.095.311.21l-.433 3.956c-.012.115-.173.21-.357.21z"/></defs></svg>